<?xml version="1.0" encoding="utf-8"?>
<!-- Generator: Adobe Illustrator 25.0.0, SVG Export Plug-In . SVG Version: 6.00 Build 0)  -->
<svg version="1.1" id="Layer_1" xmlns="http://www.w3.org/2000/svg" xmlns:xlink="http://www.w3.org/1999/xlink" x="0px" y="0px"
	 viewBox="0 0 1440 2880" style="enable-background:new 0 0 1440 2880;" xml:space="preserve">
<style type="text/css">
	.st0{fill:#FDFDFD;stroke:#000000;stroke-miterlimit:10;}
	.st1{stroke:#000000;stroke-miterlimit:10;}
</style>
<g>
	<path class="st0" d="M1272.4,1223.9c-360,0-719.9,0-1080,0c0-359.9,0-719.9,0-1080c359.9,0,720,0,1080,0
		C1272.4,503.9,1272.4,863.9,1272.4,1223.9z"/>
	<path class="st1" d="M653,803.9c0.4-0.6,0.8-1.3,1.2-1.9c4-8,7-16.4,10-24.8c0.7-1.9,1.7-3.6,2.9-5.1c0.3-0.4,0.7-0.7,1-1.1
		c1.9-11.3,9.9-20.4,11.5-31.9c0.5-3.3,2.7-6,4.8-8.6c2.4-2.4,2.6-5.6,3.2-8.7c0.3-1.8,0.8-3.6,1.7-5.1c4.6-4.9,6.5-11,7.8-17.4
		c1.3-6.3,4.9-11.6,7.4-17.3c-0.6-3.8,1.7-6.6,3.6-9.4c2-2.8,3.2-6.1,5.4-8.8c2.7-4.2,4.2-9,6.6-13.4c1.6-2.4,1.7-5.1,2.1-7.8
		c0.1-0.5,0.3-0.9,0.5-1.3c0.5-1.2,1.6-2.2,1.4-3.6c-0.8-4.9,2.3-7.6,5.7-10.1c0.3-0.3,0.7-0.6,1-0.9c1.9-3.2,1.8-7.1,3.5-10.4
		c0.5-1.2,0.4-2.4,0.2-3.7c-1.3-6.1,0.6-11.7,2.9-17.3c1.5-3.8,3-7.7,3.9-11.7c2.4-4,4.6-8.1,4.7-13c0-1.2,0.7-2.4,1.8-2.8
		c2.7-0.8,2.9-3.4,4.2-5.2c1.4-1.3,3.4-1.8,4.2-3.7c0.4-0.8,1-1.5,1.6-2.1c2-4.4,5.9-7.5,7.3-12.2c1-3.1,0.4-6.7,2.9-9.3
		c0.3-0.4,0.6-0.7,0.9-1c3.7-1.9,4.2-5.6,5.2-9.1c0.2-0.4,0.4-0.8,0.7-1.2c3.6-5.8,5.2-12.7,9.4-18.2c0.9-1.2,0.6-2.8,0.5-4.3
		c0.7-3.9,1.2-7.9,2.3-11.7c1-3.6-0.9-6.7-4.7-7.3c-2.7-0.5-5.1-1.4-7.6-2.4c-0.6-0.1-1.2-0.1-1.8-0.2c-1.6-2.3-4-4.1-4.5-7.2
		c0.9-2.2,3.3-1.7,4.9-2.6c2.9-1.3,6.6,0.6,9-2.4c0.4-0.3,0.9-0.5,1.5-0.5c3.9-0.7,7.8-1.8,11.8-1.1c0.8,0,1.6,0,2.4,0
		c4-0.1,7.5-3.5,11.7-2c6.6-0.1,13-1,19-4.1c2.9-1.5,6-1.7,8.8,0.7c0.6,0.5,1.1,0.9,1.7,1.4c4.2,1.9,6.7-0.7,9.3-3.3
		c3.2-5.4,8.4-3.4,13-3.5c4.1,0.8,8.4,0.5,12.5,1.9c0.5,0,1.1,0.1,1.6,0.3c5,1.5,10.1-0.4,15.1,0.6c0.5,0.1,1,0.2,1.5,0.3
		c5.8,1.1,11.8,1.7,17.4,3.8c9.7,3.4,18.4,8.9,27.3,13.9l-0.1,0c3.7,2.6,8.2,3.3,11.9,5.7c3.4,3.4,8.1,5.5,10.4,10.1
		c2.5,3.2,6.8,3.4,9.8,5.7c1.7,1.5,3.4,3.1,4.7,4.9c2.5,2.8,3.7,6.6,6.8,8.9c0.8,0.9,1.3,1.9,1.7,3c2.4,3.5,7.1,5.5,7,10.8
		c0,1,0.5,2.1-0.1,2.9c-2.8,3.4-0.4,5.7,1.6,8.1l0,0c1.5,1.6,3.2,3,4.3,5c0.5,1.3,1.7,2,2.9,2.6c5.9,2.9,8.6,8.1,10.5,14
		c1,3,0.7,5.5-2.8,6.8c-3.3,1.3-2.3,4.3-2.5,6.8c0,4.5,4.8,5.6,6.5,8.9c1.6,4.2,5.1,8,2.5,13.1c-0.7,1.5-0.2,2.8,0.3,4.2
		c0.7,1.9,0.4,3.7-1.7,4.4c-3.2,1-2.9,3.5-3,5.9c-0.4,1.3-0.2,2.5,0.7,3.7c0.7,0.9,1.5,2.1,0.6,3.2c-1.1,1.4-2.4,0.3-3.5-0.3
		c-0.4-0.2-0.8-0.6-1.6-0.8c-0.4,2.2-0.8,4.2,1,6.2c1.1,1.1,1.1,2.7,1.2,4.2c0,0.5,0,0.9,0,1.4c-0.1,2-1.1,3.4-3,4.1
		c-1.6,0.6-1.8,1.7-1.2,3.2c0.4,0.8,0.8,1.6,1.1,2.5c0.8,1.9,1,3.8-0.4,5.6c-2.7,3.5-2.7,7.6-2.8,11.6c0.4,2.3-0.2,4.1-1.7,5.9
		c-2.7,3.2-3,3.2-6-1.5c1.3,5.3-3,4.9-4.6,7c-1.4,6.1-4.8,11.2-7.9,16.4c-4,4.2-8.1,8.2-12.2,12.3c-3.5,3.5-6.9,7.3-11.3,9.8
		c-2.1,0.3-3.3,3-5.8,2.1c-2.1,0.8-3.6,2.3-5.1,3.8c-1.3,1.3-2.6,2.9-4.4,3c-7.1,0.2-11.4,5.9-17.2,8.7c-3.5,1.8-7.3,2.2-11.1,2.4
		c-5.2,0.3-7.5,3.2-5.6,8.2c0.8,2.2,2.4,3.5,4.4,4.4c2.7,1.8,4.8,4.5,8,5.6c1.9,0.6,1.7,2.5,1.8,4.2c0.1,1.7-1.8,3.6,0,5.1
		c2.2,2,3.8,4.9,6.6,5.7c3.3,0.9,5.4,3,7.6,5.2c2.9,3.2,5.7,6.5,8.7,9.5c1.3,1.2,2.9,2.4,2.7,4.5c-0.1,1.2-1.3,2.2-0.8,3.6
		c0.6,0.9,1.4,1.3,2.5,1.5c5.2,0.6,8.6,3.4,8.4,8.2c-0.1,3.3,1.1,5.1,3.3,7c1.5,2.8,1.9,6.1,4.2,8.5c2.2,3.3,4,6.6,4.4,10.7
		c0.4,4.2-0.2,5-4.5,4.4c-1.8-0.2-3.5-0.8-5.3-1.3c-7.5-1.1-8.8-6.6-9.2-12.8c-0.2-1.9-0.4-3.1-3.2-2.9c-3.3,0.3-6.7,1.3-10.1,0.1
		c-1.2-6.7-5.2-11.6-10-16.1c-0.8-6.2-6.6-8.8-9.5-13.6c-1.8-3-3.3-7-8.2-6.7c-1.2,0.1-2.2-1.4-2.7-2.7c-0.5-1.5-1.6-3-2.9-3.3
		c-5.6-1-5.7-5.1-5.7-9.3c-0.8-3-2.2-5.6-4.9-7.2c-4.9-2.9-10-5.6-13.8-10c-0.6-0.7-1.8-1.2-1.9-2.2c-0.4-3.6-3.1-4.5-5.9-5.2
		c-0.6-0.4-1.3-0.8-1.9-1.2c-0.7-0.9-1.5-1.7-1.7-2.9c0.9-4-1.3-3.3-3.7-2.4c-1.8-1-2.9-2.6-3.6-4.5c0.1-3.5-0.7-5.8-5.1-4.9
		c-3.6,0.8-5.8-2-7.6-4.4c-2.1-2.8-0.5-5.3,3.2-5.8c3.7-0.5,7.5-0.3,10.8,0.7c7.1,2.1,13.8,0.4,20.6-0.6c1.2-0.2,2.3-0.3,3.5-0.2
		c2.9,0.1,5.6,3.3,8.7,0.6c2-1.4,3.5-3.4,5.8-4.4c1.3-0.7,2.3-1.8,3.1-3c2.5-3.8,7.2-3.5,10.6-5.7c13.3-5.7,24.2-14.6,34.5-24.6
		c1.3-1.3,2.6-2.6,3.4-4.3c8.3-12.6,16.5-25.2,20.9-39.8c1.4-9.5,2.5-19.1,3.4-28.7l0,0c0.4-0.3,0.7-0.7,0.9-1.1
		c0.1-4.1,0.7-8.2-0.4-12.3c-1.6-3.5-2.1-7.5-4.7-10.5c-2.1-4.8-5.4-9.1-7.3-14c-1.8-3.1-2.1-6.9-4-10c-1.3-2-1-4.7-2.5-6.7
		c-2.2-4.5-6.4-7.6-8-12.5c-7.7-2.3-11.6-9-16.7-14.2c-0.2-0.2-0.5-0.4-0.9-0.5c-9.3-2.2-16.2-8.6-23.7-13.9c-2-2.8-4.3-4.1-7.5-1.7
		c-2.2,1.7-4.7,1.1-7.2,0.4c-4.1-1.2-8-3.1-12.2-4.4c-5.7-1.7-11.2-3.6-17.4-1.3c-4.4,1.6-9.1-0.1-13.7-0.6
		c-5.7-0.7-11.4,1.4-17.1,2.1c-5.1,0.7-9.9,0-14.8-0.7c-4.6-0.6-6,0.8-4.6,5.4c1.3,4.4-0.1,9.4,3.4,13.2c1.3,3.2,2.5,6.4,1.7,10.1
		c-0.5,2,0.6,3.8,1.6,5.6c2.3,4.3,2.8,8.6,0.8,13.3c-1.6,3.8-0.6,8.2-0.3,11.9c0.4,5.4-1.2,9.9-2.5,14.8c0,5,0,10.2-0.4,15
		c-0.7,8.1,2.5,15.9,0.5,23.9c-0.4,1.8,0.4,3.6,1.1,5.3c0.5,1.6,0.9,3.5,0.1,4.8c-2.1,3.8-0.1,6.5,1.9,9.4c3.4,4.7,3.2,11-1,15.5
		c-2.5,2.6,0.6,3.7,1.1,5.4c3.3,4.6,3.1,7.4-0.9,12.2c3,1.7,2.8,4.4,2.3,7.2c-0.9,1.7-1.6,3.5-0.4,5.4c0.9,1.6,0.7,3.4,0.6,5.2
		c-0.4,1.3-0.3,2.7,0,4c-0.6,3.3,2.3,7.6-2.5,9.8c-1.6,1.2-1.6,2.8-1.1,4.5c2.5,8.6,0.3,17.2,0.6,25.8c0.2,4.9-2.5,9.8-0.3,14.7
		c0.3,5.4,0.8,10.9-0.9,16.1c-0.4,1.2-0.1,2.2,0.2,3.3c1.4,5.6,1.1,11.1-1.6,16.4c-2.1,4.1-1.5,8.4-0.9,12.6
		c1.8,3.5,2.6,7.1,0.3,10.7c-1.3,2-0.6,3.8,0.6,5.5c2.5,6.5,4.8,12.9,3.2,20.1c-0.2,1.1,0.2,2.6-0.6,3.3c-5,4.6-4,11.5-6.7,17
		c-3.1,3.5-1,7.1-0.2,10.7c2.4,4.5,0.2,8.9-0.2,13.3c-1.4,1.4-3.1,1.6-4.9,0.8c-0.9-0.4-1.3-1.5-2.1-2l0,0.1c-3-1.3-6.1-2.5-6-6.7
		c-0.4-3.3-0.1-6.7-0.2-10c-0.2-3.8-0.1-7.6-2.9-10.8c-1.7-1.9-0.4-4.6-1.3-6.7c-2.9-5.8-1.1-11.9-0.7-17.8c0.3-4.9,1.5-9.4-2-14.1
		c-2.2-2.9-2.4-7.5,0-11.2c2.5-1.9,2.2-4.2,1.1-6.6c-0.9-2.1-1.9-4.2-2.9-6.2c-0.6-0.7-1.3-1.4-1.9-2.1c-0.6-0.6-0.8-1.4-1.4-2.1
		c-4.4-4.8-4.7-10.4-0.5-15.8c1.7-2.2,2.2-4.2-0.3-5.9c-2.1-1.4-2.6-3.8-3.8-5.8c-0.2-8.2,0.2-16.4,0-24.6c-0.6-20-1-40-1-60.1
		c0-1.5-0.1-2.9,0.4-4.4c1.1-5.1,0.9-10.3,0.1-15.5c-0.5-0.7-0.9-1.4-0.6-2.3c-1-6.9-1-13.8,0.2-20.7c0-1.7,0-3.5,0-5.2
		c0.2-5.1-0.4-10.1,0-15.2c0.8-3.9,1.3-7.6,0.1-11.6c-0.7-2.5-0.1-5.2,1-7.7c2.5-3,2.3-6.6,1.5-10c-1.4-6.1-0.2-11.9,1.1-17.7
		c0.4-1.6,1.1-3.2,0.1-4.8c-0.3-0.4-0.6-0.7-0.9-1.1c-1.5-1.2-3.3-2.1-5-3.8c-0.2,3.1,3.3,3.9,2.7,6.6c-0.5,2.2-1.6,3.9-2.9,5.7
		c-1.1,1.4-0.1,2.9,0.3,4.2c0.8,2.5,0.4,4.3-2.5,4.7c-2.7,0.3-2.5,3.5-4.5,4.5c-1.8,1.2-2.3,4.2-5.3,4.1c1.1,1.1,3,1.3,3.9,2.9
		c1.3,2.1,1.6,4.6,2.2,6.9c0.6,2.2,0.5,5.7-3.1,6.8c-2.1,0.6-3,3-5.4,3.3c-1,0.1-1.1,1.2-0.6,2c3.1,5.4-1.5,9.3-2.7,13.8
		c-3.4,3.4-6.2,7.1-6.8,12.1c-0.4,3.5-3.7,5.8-3.9,9.4c-1.6,3.1-2.7,5.8,0.5,8.9c1.9,1.8,0.2,3.9-1.8,5.3c-2.5,1.7-4,4-3.3,7.2
		c1,5.4-4.1,6.9-6.6,10.1c-3.4,3.7-5.2,7.4-4.5,12.9c0.6,4.5,0.9,9.9-3.7,13.5c-0.3,0.2-0.7,0.4-0.5,0.7c3.2,5.1-0.3,11.2,2.5,16.3
		c1.4,2.6,0.4,4.7-1.4,6.2c-4,3.2-5.5,8.1-8.9,11.6c-2.5,5.4-5.6,10.5-8.9,15.4c-1.8,2.6-2.6,5-0.8,7.8c0.8,2.8,0.8,5.8,1.7,8.6
		c0.7,2.3,0.2,4.4-1.8,6.2c-1.9,1.7-2.9,3.9-2.7,6.5c-0.4,4.4-2.9,8.1-4.6,12c-0.3,0.4-0.6,0.7-0.9,1.1c-0.8,1.1-1.6,1.7-3.1,1.7
		c-2.3,0-2.5,1.5-1.8,3.3c1.2,2.2,1,4.5,0.2,6.7c-2.4,6.6-4.9,13.2-7.6,19.7c-1.9,4.7-3.5,9.6-5.7,14.2c-0.8,6.1-3.9,11.5-6.1,17.2
		c-3.2,8.5-6,17.2-9.6,25.6c-1.9,4.6-4.1,9-5.2,13.8c-0.1,1.8-1.1,3.3-2,4.9c-3.8,9.2-7.7,18.4-11.1,27.8c-1.7,4.6-4.4,8.8-5.8,13.6
		c-1.4,1.8-0.8,5.8-4,5.5c-3.3-0.3-2.5-4-2.9-6.1c-1.3-6.8-5.2-12.3-8-18.4c-2.4-5.8-4.7-11.7-7.7-17.3c-2.2-3-2.1-6.9-4.1-9.9
		c-1.6-3.8-2.9-7.7-4.9-11.3c-1-3.8-3.1-7.1-4.2-10.9c-1.4-3.4-2.1-7-4-10.2c-1.5-5-3.6-9.7-5-14.8c-2.8-6.9-4.7-14.2-8-21
		c-1.6-5.3-5.5-9.3-8.1-14.1c-4.7-8.9-10-17.5-11.3-27.8c-0.3-1.9-0.7-3.5-2-5c-1.8-4.6-0.9-10.1-4.8-14c-1.1-3-0.2-6.3-1.2-9.3
		c-0.9-2.7-1.6-5.4-4.1-7.2c-0.8-0.7-1.1-1.6-1.5-2.6c-3.7-2-2.9-6.6-5.4-9.3c-1.5-5.1-4.1-9.8-3.6-15.3c-0.2-2.9-1.8-4.9-3.9-6.6
		c-1.1-5.5-5.6-9.3-7.1-14.6c-0.8-6-2.2-11.9-3.6-17.8c-0.5-2.1-1.2-4-0.5-6.3c0.6-2-0.2-4.1-2.4-4.9c-5.1-1.6-6.3-6-7.5-10.3
		c-1.6-6.2-2.7-12.5-4.1-18.7c-1.5-8-3.5-15.8-8.5-22.4c-0.4-0.9-0.9-1.8-1.3-2.7c-0.4-0.9-1.4-1.5-1.6-2.5
		c-0.8-8.4-2.5-16.5-9.6-22.2c0-0.5,0-1,0-1.5c-0.6-4.2-3.4-7.6-5.9-6.7c-3.4,1.3-3.7,4.2-3.9,7.7c-0.3,6.4,1.3,13-0.8,19.3
		c-0.9,2.7,0.9,4.8,1.1,7.3c0.4,5-0.6,9.9,0.2,14.9c0.3,1.7-0.8,3.2-2.2,4.3c-1,0.8-2.3,1.5-1.7,3.2c1.4,2,3.2,3.4,5.1,4.8
		c0.8,1.4,2.1,2.6,2.6,4.1c1.8,5,0.5,7.1-4.8,7.6c-0.7,0.1-1.2,0.6-1.7,0.9c-0.3,0.3-0.7,0.6-1.1,0.9c-1.6,2-1.2,3.3,0.9,4.8
		c5.5,3.8,6.5,7.2,4.9,14.1c1.5,5.1,0,10.1,0.1,15.2c0,2.9,0.8,6.4,2,9.4c1.1,2.9,1.1,5.5-0.3,8.1c-1.2,1.9-3.7,3-3.4,5.8
		c0.4,4,2.5,7.8,1.5,11.9c-0.1,0.5-0.2,1.1-0.4,1.6c-0.6,6.9,0.2,13.8-0.5,20.7c-0.4,1.5-0.7,3-0.2,4.6c0.3,5-0.2,10,0,14.9
		c0,0.6-0.2,1.1-0.4,1.6c-1.1,6.1,0.7,12.4-0.5,18.5c0,1.1-0.3,2.2-0.6,3.2c-1.3,4.3-2,8.6-0.4,13.1c1.1,3,1.7,6.5-0.1,9.7
		c-1.8,3.4-0.2,6.4,0.8,9.5c0.1,0.9,0.2,1.9,0.3,2.8c2.2,6.2,3.4,12.4-0.2,18.6c-1.2,2.3-1.7,4.9-3.3,7.1c0.3,6.8-3.9,12.9-2.6,19.8
		c0.3,1.6-0.2,3.3,1.1,4.7c1.8,3.3,1.1,6.3-0.9,9.2c0,0.9,0.1,1.8,0.1,2.7c0.2,0.5,0.2,1-0.2,1.4c-3.2,0-5.1-3.4-4.1-7.6
		c0.2-0.9,0.6-1.9,0.5-2.8c-0.6-2.2-2.3-1.9-3.4-1c-3.3,2.8-4,0.3-5-2.1c-0.8-2-0.5-3.8,0.1-5.7c0.4-1.1,1.4-1.9,2-2.9
		c1.1-1.9,0.8-3.2-1.1-4.6c-2.4-1.7-3.4-4.6-2.5-7c1.5-4,0.9-6.9-2.1-9.7c-0.5-0.4-0.5-1.2-0.7-1.8c-1-6.4,0.9-12.7,0.8-19.1
		c0-2.1,0.3-4.3-0.5-6.3c-3.2-4.3-3.3-8.9-0.6-13.4c1.4-2.3,1.2-4.2-0.2-6.4c-2.7-4.1-4.7-8.7-8-12.5c-1.8-2.8-0.5-5.6-0.2-8.4
		c-0.2-2.4,2.6-3.6,2.5-6c0.8-3.8,1.5-7.3-3.6-9c-1.7-0.5-1.8-3.3-1.9-5.4c-0.5-14.6-1.2-29.1-1-43.7c0.2-11.8,0.2-23.5,0-35.3
		c-0.1-5.5,0.2-10.9,1.7-16.2c0.9-3.3,0.3-6.6-1.2-9.7c-1.9-4-2.2-8.5-3.2-12.7c-0.5-2.3,0.4-4.1,1.8-5.8c1.8-3.1,2.4-6.4,2-10
		c-0.8-6.6-0.9-13.2,0.3-19.8c0.2-1,0.4-2,0.1-3c-1.7-5.7-0.1-11.2,1.2-16.6c0.9-2.7,1.9-5.2,0.4-8.4c-1.5-3.4,0.3-6.8,1.9-9.9
		c1.8-4.7,1.6-9.6,1.5-14.6c-0.2-6.8,0.1-13.7-1-20.5c-0.1-0.6-0.2-1.5,0.1-2c4.8-6.9,4.7-14.9,5.5-22.8c0.1-3.6,3.2-5.1,5.2-7.4
		c2.5-2.3,5.8-3.6,7.1-7.1c0.8-2,2.5-1.8,3.8,0.1c1,1.6,1.2,3.4,1.2,5.2c0,3.3,1.5,6,3.2,8.7c1.9,6.1,6.1,11,8.8,16.7
		c-0.8,2.7,1.7,3.2,3,4.4c0.1,5.3,4.8,7.5,7.6,11c0.3,0.4,0.5,0.8,0.7,1.2c0.5,2.2,0.6,4.5,1.9,6.4c1.9,2.8,3.1,6,4.7,9
		c1.9,2.3,3.3,4.9,5.1,7.2c1.6,2.1,3.4,4.1,5,6.2c2.7,3.5,5.1,7.1,1.7,11.6c-0.6,0.8-0.9,2.4-0.1,2.7c4.5,1.7,5,7.8,10.2,8.7
		c2.3,0.4,3.5,2,3.9,4.9c0.7,4.7,1.7,9.6,4.6,13.8c2.7,3.9,1.7,9,3.3,13.3c0.2,0.6,0.4,1.3,0.8,1.8c0.1,0.3,0.2,0.5,0.1,0.8
		c4.2,7.4,5.9,15.9,9.9,23.6c3.5,6.7,5.6,14.5,6,22.3c0.1,2.5,1.3,4.4,2.4,6.5c0.5,0.8,0.8,1.8,1.3,2.6c0.9,2.5,1.6,5.2,3,7.5
		c0.7,1.1,0.6,2.6,1.4,3.7c0.1,0.6,0.1,1.1,0.2,1.7c6.6,8.6,8.7,19,11.8,29c1.5,3.4,3.9,6.3,6.1,9.2c3.2,6.8,4.8,14.1,7.6,21
		c1.8,3.5,4.2,6.9,4,11.2c0.2,0.4,0.3,0.8,0.5,1.2c1.2,2,1.7,4.1-0.1,6.1c-0.4,0.5-0.7,1.1-1.1,1.6c-0.7,2.3,1,3.5,2.2,5
		c1.3,1.6,3.1,2.8,3.6,5c0.8,3.8,3.9,5.7,6.9,7.4c5.9,3.4,7.7,9.3,9.7,15.1c0.6,1.8-0.1,2.9-2.3,2.4c-1-0.2-1.9-0.6-3.2,0.3
		c3.6,3.4-0.1,7.8,1.9,12c1.5,3,2.9,5,6,5.9c5.9,1.5,9.2,5.5,10.9,11c0.2,0.4,0.3,0.8,0.5,1.3c0.3,0.9,0.8,1.8,0.1,3.4
		c1.3-2,2.6-2.9,3.7-4c0.4-0.5,1-0.9,1.4-1.4c0.4-0.5,0.9-1,1.4-1.4C650.6,810.7,651.5,807.2,653,803.9z"/>
	<path class="st1" d="M959,816c2.9,0.1,5.7,1.5,8.7,1.2c0.3-5.5-2.3-9.8-4.7-14.2c1.3-0.8,2.2,0.3,3.3,0.7c3.5,0.4,6.1,1.2,4,5.7
		c-0.9,2-0.3,4.2,1.8,5.5L972,815c3.9,2.3,5.6,6.5,7.8,10c3.2,5.2,9.3,6.9,12.3,11.9c0.8,1.4,2.1,2.5,2.8,4c0.1,0.3,0.2,0.5,0.2,0.8
		c-0.3,2.7-1.8,2.2-3.2,1c-0.8-0.7-0.9-2.1-2-2.8c-0.6-0.1-1.2-0.2-1.8-0.3c-1.4-1.6-2.8-3.1-5.4-2.3c-5.7,1.8-10-0.9-11.1-7
		c-0.4-2.2-0.4-4.3-2.7-5.3l0,0c-1.7-2.5-2.6-5.9-7-5.3C960.8,819.9,958.8,818.2,959,816z"/>
	<path class="st1" d="M816.9,506c-2.3-2.6-3.3-5.7-3.1-9.2c0.1-1.6-0.1-3.1-1-4.7c-1.8-3.4,0.7-6.9,4.5-6.2c6,1.1,12,1.6,18.1,0.9
		c2.1-0.3,4.2-0.5,6.3-1.2c4-1.4,8.2-1.3,12.2-0.3c3.3,0.8,7,1.3,9.8,0.2c8.6-3.4,15.8,0.6,23.4,3c2.8,0.9,5.6,2.1,8.4,3
		c1.4,0.5,3.1,0.7,4.3-0.3c4-3.2,7.2-2.1,10,1.7c0.6,0.7,0.7,1.4,0,2.1c-1.2,0-1.7-0.9-2.3-1.8c-1.5-2.4-3.2-3.2-5.7-1.2
		c-2.2,1.8-4.7,1.6-7.1,0.9c-3.3-1-6.7-2-9.9-3.5c-7.7-3.6-15.6-4.5-23.7-2.1c-1.8,0.5-3.6,0.9-5.4,0.1c-4.9-2.3-9.6-0.6-14.4,0.2
		c-7.3,1.1-14.7,2.2-22.1,0.3c-4.2-1.1-5.3,0.1-4,4.1c1.2,3.9,0.1,8.4,2.6,12c0.6,0.6,0.5,1.3,0.3,2
		C817.8,506.3,817.4,506.3,816.9,506z"/>
	<path class="st1" d="M862,455.9c-1.5,0-3,0.3-4.4,0.1c-3.9-0.6-6.7,0.6-8.6,4c-3.3,1.3-5.9,4.7-10,2.9c-0.3-0.3-0.7-0.7-1-1
		c-0.3-0.3-0.4-0.6-0.4-1c0.3-0.5,0.7-0.9,1.4-1c4.6,2.3,7.6-1.1,10.1-3.6c2.5-2.6,4.6-3,8.1-2.7c7.4,0.5,14.7,1.8,22.1,2.8
		c5.1,0.7,10.5,0.7,15.7,1c7.9,0.3,15.2,2.4,21.7,6.2c6.3,3.6,12.9,6.6,19.3,10c0.9,0.5,1.6,1.2,1.2,2.4c-6.4-3.1-13.7-4.6-19.1-9.8
		c-2.2-2.1-5.6-1.6-8.1-3.1c-5.6-2.9-11.8-3.2-17.9-4l0,0c-5.6-1.4-11.4,0.4-17-1l0,0C870.9,455.7,866.3,457,862,455.9z"/>
	<path class="st1" d="M491.2,634c0.3,0,0.5-0.1,0.8-0.1c0.7-0.9,1.6-2.1,2.8-1.1c1.8,1.4,4.1,1.1,6,2.1c0,0.2,0.1,0.4,0,0.5
		c-5,3-3.6,6.3-0.5,9.9c0.5,0.5,0.6,1.6,0.5,2.4c-1.1,4.2-1.2,8.4-0.1,12.6c0.4,1.6,0.3,3.3-1.1,4.7c-0.6,0.6-1.1,1.6-0.6,2.2
		c3.9,4.7,0.9,10.3,2.4,15.4c0.6,2-0.1,4.3-2.2,5.7c-2.4,1.6-2.6,3.8-1.6,6.1c1.6,3.7,1.5,7.3,0.6,11.2c-0.6,2.7-0.1,5.6,0,8.4
		c0.2,4.7,0.5,9.5-1.3,14.1c-1.9-2.9-0.6-6.2-1-9.3c0.5-4.6-1.6-9.1,0-13.7l0,0c1.8-4.7-0.4-8.9-1.9-13.2c0.3-2.4,2.2-3.6,3.8-4.9
		c3.3-5.2,1-10.5-0.1-15.6c-0.7-3-1.9-5.5,0-8.5c1-1.6,1.3-3.4-0.9-4.7c-1.9-1-0.9-2.5-0.4-3.9c2.2-7.6,1.5-9.9-4.6-14.3
		C489.7,638.1,489.3,636.2,491.2,634z"/>
	<path class="st1" d="M588.9,697c1.4,4.8,5.8,7.8,7.5,12.5c2.2,6.2,6.2,11.7,6.8,18.4c0.1,0.9,0.6,1.9,1.1,2.7
		c3.1,4.9,4.8,10.5,8,15.5c2.3,3.6-1.2,5.1-3.9,6.5c1.7,3,3.3,5.9,7.1,6.4c0.8,0.1,2,0.6,2.1,1.1c0.8,4.7,5,6.2,7.7,9.1
		c2.7,2.9,4,7.2,5.8,11c1.2,2.7,2.2,5.5,3.2,8.2c0.7,1.8,1.6,3.8-0.5,5.4c-1.6-1.9-1.4-4.6-2.9-6.6c-1.6-4.4-3.2-8.7-5.7-12.7
		c-1.6-2.5-3.1-5.2-6.3-6c-0.5-0.1-1.1-0.4-1.3-0.8c-2.5-6.2-9.2-8.7-12.4-14.3c-0.4-3.2,3.8-3.2,4-6c-1-1.3-2.7-2.1-3.2-3.8l0,0
		c0.8-5.2-2.3-9-4.6-13.1c-1.9-7.4-4.1-14.7-8-21.3c-1.3-3-4.2-4.9-5.2-8.1C588.4,699.9,587.8,698.3,588.9,697z"/>
	<path class="st1" d="M778,550.9c4.3,0.3,2.6-2.7,1.8-4.1c-1.3-2.4-1.9-3.6,0.9-5.5c2.7-1.8,2.4-4.7-0.3-6.8c-2.8-2.2-0.2-4-0.1-6.9
		c2.2,3,4.3,4.8,6.7,6.3c-0.4,0.4-0.9,0.8-1.3,1.4c0.6-0.4,0.8-1,1.3-1.4c2.2,0.9,2.6,2.9,1.9,4.6c-3.3,7.9-2,16.1-1.9,24.3
		c0,2,0.4,4.1-2,5.2c-0.9-1.1-0.5-2.2-0.2-3.3c0-1.8,0-3.7,0-5.5c-1-2.1-1.5-4.8-4.8-4.1C777.8,554.4,776.6,553.3,778,550.9z"/>
	<path class="st1" d="M460.9,631c2.8,3.3,2.3,7.1,1.6,10.8c-0.9,4.6-1.4,9.2-1.4,13.8c0.1,19.8-0.1,39.5,0,59.3
		c0,7.4,0.5,14.8,0.7,22.3c0.1,1.7,0.4,3.9,2,4.3c5.3,1.3,4.7,4.6,3.3,8.4c-0.2,0.6-0.2,1.3-0.2,2c-0.4,0.3-0.8,0.3-1.2-0.1
		c0.1-1.1,0.1-2.3,0.4-3.4c0.8-2.6,0.6-4.1-2.7-4.9c-3.6-0.8-3.5-4.3-3.5-7.3c-0.1-4.4-0.1-8.9-0.1-13.3c-1-10.5-0.1-21.1-0.5-31.6
		c-0.1-1.7,0.7-3.6-0.7-5.2c-1.1-1.8-1.1-3.6,0-5.4c1.3-4.2,0.4-8.5,0.6-12.7c0.3-7.4-0.5-14.8,0.5-22.2c-0.2-3.7,2-7.2,1-11
		C460.3,633.6,460.2,632.3,460.9,631z"/>
	<path class="st1" d="M806.9,857.1c0.7,0.3,1.4,0.6,2.1,0.9c1,1.1,1.3,2.6,2.3,4.4c0.9-1.5,0.7-3.3,1.9-4.4
		c-0.4-4.3,2.2-8.7-0.1-13.1c-0.4-3.7-1.7-7.3,0.1-11c0.9-3.4,3-6.4,2.1-10.2c-0.3-1.3,0.5-2.3,1.4-3c5.5-4.2,3.9-10.3,3.8-15.8
		c-0.1-3.7-1.6-7.3-2.5-11c-0.4-0.9-0.5-1.7,0.3-2.4c1.6,1.8,1.3,4.4,2.8,6.3c2.6,5.6,1.2,11.7,1.9,17.6c0.2,1.6-0.5,3.3-1.5,4.1
		c-4.6,3.5-3.9,8.2-3.8,13c0,2.6-2.7,4.4-2.2,7.7c0.4,2.5,1,4.2,2.7,5.9c-0.1,6.3-4.2,11.7-3.8,18.1c0.1,1.5-1.4,2.2-2.8,2
		c-1.7-0.3-3.4-1.1-3.3-3.1C808.1,861.1,807.1,859.2,806.9,857.1z"/>
	<path class="st1" d="M723.9,709.9c2.9-3.6,4.8-8,8.6-11c1.6-1.2,3.5-3,2.3-5c-2.7-4.2-1.2-8.7-1.5-13c-0.2-2.6-2.6-3.2-2.8-4.8
		c-0.5-3.3,4.1-0.4,4.5-3.1c0.5-4.1,2.3-8.6,1.1-12.2c-2-6.1,1.6-8.8,4.9-12c0.5-0.4,1-0.3,1.4,0.2c-1.1,1.7-1.9,3.5-3.2,5
		c-1.3,1.6-1.8,3.2-1.2,5.1c1.6,5.3-0.2,10.2-1.7,15.1c-0.9,2.8-1.3,5.5-0.9,8.3c0.6,3.9-1.2,8.1,1.5,11.9c0.9,1.3-0.6,3.2-1.7,4.4
		c-1.3,1.5-2.8,2.8-4.2,4.1c-1.1,3.2-2.3,6.3-5.8,7.6C724.6,710.4,724.2,710.2,723.9,709.9z"/>
	<path class="st1" d="M553,603.9c-2.7-1.7-2.5-4.6-2.8-7.1c-0.4-4-1.9-7.4-3.9-10.8c-1.8-3.1-2.9-7-3.1-10.6
		c-0.1-2.4-1.2-3.5-2.6-3.9c-3.3-0.9-5.6-2.7-6.8-5.9c-0.2-0.5-0.9-1.1-1.4-1.3c-4.4-1-3.9-3.9-2.5-6.9c1.4-2.9,1.1-4.9-0.8-7.6
		c-2.1-2.9-5-5.2-6.2-8.7c-0.3-0.5-0.2-1,0.3-1.4c4.3,3.1,6.4,8,9.6,11.9c1.5,1.9,0.6,3.7-0.6,5.4c-1.5,2.1-3.1,4.4,1.1,5.5
		c1.2,0.3,1.8,1.4,2.3,2.5c1,2.3,2.6,3.6,5.2,4.1c2.7,0.5,4,2.1,4.5,5.1c0.8,5,1.8,9.9,4.6,14.5C552.4,593.2,552.2,598.8,553,603.9z
		"/>
	<path class="st1" d="M795,779.9c-3.7,3.3-2.5,7.7-0.4,10.3c3.4,4.3,2.6,8.7,2.2,13.2c-0.7,6.6-1.4,13,0.3,19.5
		c0.2,6.5,4.7,12,4.3,18.8c-0.2,3-0.6,6.2,0.6,9.3c-0.1,3.5,3.5,4,4.9,6.2c-6.9-1.3-7.4-1.8-7.9-8.9c-0.2-3.3-0.2-6.6-0.2-9.9
		c0-2.9,0.1-5.7-2.5-7.7c-0.4-0.3-0.9-0.9-0.8-1.2c1.1-4.7-2.2-8.8-1.8-13.4c0.4-4.9,1.1-9.8,1.7-14.8c0.4-3,0.4-5.6-1.9-8.3
		c-3.2-3.8-2.2-12.1,1.4-15.2C795.6,778.4,795.6,779.2,795,779.9z"/>
	<path class="st1" d="M784.1,646c0,1.3-0.1,2.6-0.1,3.9c-0.8,1-0.5,2.2-0.5,3.4c0.3,18.8,0.2,37.6,1,56.3c0,0.5,0.2,0.9,0.5,1.4
		c-0.4,7.5,0.7,15.1-0.6,22.6c-0.1,0.7,0.5,1.5,0.8,2.3c0.5,1,0.6,1.8-0.8,2.1c-1.1-2.3-1.3-4.6-1.3-7.2c0.3-12,0.8-23.9-0.8-35.8
		c-0.4-3.1-0.4-6.3-0.4-9.5c-0.1-10.6,0.1-21.3-0.1-31.9c0-3.5,0.9-6.9,1.3-10.3c0.8-5.5,0-10.9-1.1-16.2c0.4-0.3,0.8-0.4,1.3-0.1
		c0.3,0.7,0.3,1.4,0.1,2.1c0.2,0.4,0.4,0.8,0.6,1.2C785.1,635.4,784.6,640.7,784.1,646z"/>
	<path class="st1" d="M994,540.9c-0.6-1.9-3.3-2.6-3-5c1.9-0.5,2.7,0.9,3.5,2.1c1.3,2,3.4,3.9,5.2,4.3c8.3,2,8.4,9.3,10.6,15.2
		c0.7,1.8,0.8,3.9,1.4,5.7c0.6,1.7,0.7,3.4-0.8,5c-4.8,5.2-4.8,5.5-0.6,10.8c0.4,0.5,0.6,1.2,0.9,1.7c-0.7,0.7-1.4,0.7-2.2,0.1
		c-1.3-1.9-2.8-3.6-4.8-4.7c-1.9-1-2.5-2.4-2.3-4.3c0.5-0.4,0.7-1.1,1.2-1.4c2.2-1.3-1-2.6-0.1-3.9c0.8-3.5,3.4-2.8,6-2.5
		c-0.2-6.3-2.2-11.9-5.9-17c-1.1-1.6-2.7-1.7-4.1-2.4C997.2,543.7,995.2,542.9,994,540.9z"/>
	<path class="st1" d="M491,617.9c-3-1.8-2.9-3.7,0.2-4.9c2.5-0.9,2.9-2.4,2.7-4.6c-0.4-6.1-0.2-12.3-0.7-18.4
		c-0.4-6,0.7-12.2,0.7-18.3c0-2.3-0.3-4.7,0-7c0.4-2.5,1.4-5.3,4.2-5.6c2.8-0.3,4.9,1.6,6.1,4.3c0.9,1.8,0.7,3.6,0.7,5.4
		c0.5,0.8,0.6,1.6-0.2,2.3c-2-1.4-1-3.7-1.4-5.5c-0.5-2.4-1.3-4.6-4.2-4.7c-2,0-4,3.5-4,6c-0.1,6.8,1.5,13.7-0.7,20.5
		c-0.4,1.1-0.2,2.3,0.2,3.4c1.3,4.3,1.9,8.7,0.7,13.2c-0.2,0.9,0.3,1.9,0.5,2.9c1.2,1.6,0.1,3.6,0.9,5.3c0.8,1.9,0,3.1-2,2.8
		C492.3,614.6,491.8,616.3,491,617.9z"/>
	<path class="st1" d="M910,495c0-0.7,0-1.4,0-2.1c3.6,2.4,7.3,4.5,10.3,7.7c2.4,2.5,5.9,2.9,8.9,4.2c3.4,1.4,6.2,3.2,8.7,6.1
		c3.1,3.6,5.6,8.8,11.9,8.6c0.6,0,1.6,1,1.7,1.7c0.8,4.7,4.3,7.6,7.1,11.1c0.4,0.5,0.3,1.2,0.4,1.9c-3.8-0.5-5-4-7-6.3
		c-4.6-5.4-10.8-9.1-15-14.8c-2.6-3-5.4-5.4-9.6-6.4C920.4,504.7,915.5,499.3,910,495z"/>
	<path class="st1" d="M571,657.9c-2-2.1-2.6-4.7-3.1-7.6c-1.5-9.5-3.6-18.8-8.5-27.2c-1.8-3.1-3.3-6.1-3.5-9.6
		c-0.2-3.2-3.3-5.4-2.9-8.8c3.1,2.9,4.7,6.6,5.1,10.8c0.3,3.5,2.4,6.2,4.2,8.9c2.1,3.1,2.9,6.6,3.9,10.1c1.9,6.7,3.8,13.3,4.7,20.2
		C571.6,655.9,571.8,656.9,571,657.9z"/>
	<path class="st1" d="M460.9,631c0,1.3,0,2.6,0,3.9c-3-5.3-3.3-11.4-4.8-17.1c-0.2-0.7,0.1-1.7,0.5-2.4c3.1-5.1,3.1-10.5,2.5-16.3
		c-0.6-5,0.6-10.4,0.3-15.4c-0.4-8.2,0.5-16.1,2.5-24c0.3-1.2,0-2.6,0-4c3.8,1.7,1.1,4.6,1.4,7c-3.1,9.9-1.2,20.2-2.1,30.3
		c-0.6,6.8,2.3,14-1.8,20.5c-3.3,4.2-0.3,8.5,0,12.7C459.6,627.9,460.4,629.4,460.9,631z"/>
	<path class="st1" d="M959.9,795.1c-2.1,0-2.2-3.4-4.8-2.9c-1,0.2-0.4-0.7,0-1.3c2.7-4.1-1-6.6-2.4-9.7c-0.5-1.2-1.8-1-3.1-0.6
		c-2.7,0.9-4.5-0.2-5.5-2.8c2.1-0.1,3-0.8,1.9-3c-2-5.1-7.3-7.6-9.9-12.3c-0.3-0.6-0.8-1.1-1.2-1.6c0.4-0.5,0.8-0.5,1.3-0.2
		c5,4.9,10.3,9.6,14.7,15.3c2.8,3.6,7,6.2,6.9,11.3c-0.1,2.6,1,4.4,2.3,6.3C960.6,794.3,960.5,794.7,959.9,795.1z"/>
	<path class="st1" d="M816.9,506c0.3,0,0.6-0.1,0.9,0c2.8,2.6,4.7,5.4,2.5,9.5c-0.7,1.4-0.5,3.1,0.8,4.1c5.3,4.3,2.8,9.5,1.9,14.5
		c-1.3,4.5-0.5,9.1-0.4,13.6c0.1,4.5-0.9,8.4-2.5,12.4c-0.7,0.4-1,1.5-2.1,1c2.9-7.6,3-15.5,2-23.5c-0.1-1,0.1-1.9,0.6-2.9
		c2.2-4.7,1.4-9.3-1.2-13.6c-0.8-1.3-1.8-2.5-1.4-4.1C818.9,513.2,818,509.6,816.9,506z"/>
	<path class="st1" d="M526.1,617.9c1.4,6.1,2.7,12.2,4.1,18.3c1,4.5,2.8,8.5,7.4,10.4c2.4,1,3.4,3.4,3,5.2c-0.9,3.4,0.4,6.2,1,9.2
		c1.1,5.2,2.1,10.3,2.6,15.6c0.4,0.9,0.5,1.8-0.2,2.5c-0.7-0.6-1-1.4-1-2.2c-0.1-6.9-3.2-13.1-4.2-19.8c-0.2-1.5-1-2.8-0.5-4.4
		c0.9-2.7,0.5-4.5-2.9-4.7c-2-0.1-2.4-2-3.3-3.4c-3.9-6.6-4.1-14.3-6.1-21.4c-0.5-1.7-0.7-3.6-1.1-5.3
		C525.2,617.6,525.6,617.6,526.1,617.9z"/>
	<path class="st1" d="M762.9,595.9c1.5-3.1,1.2-6.8,3.4-9.7c0.7-1,0.5-1.4-0.9-1.9c-2.2-0.8-1.6-3.1-1.3-4.7
		c0.5-2.4,2.2-0.2,2.8-0.5c2.4-1,4.5-2.7,6.7-4.1c-1.8-1.7,2.7-3.9-0.6-5.8c-2.1-1.1,0.8-3.8-1-5.4c0.7-0.6,1.4-0.5,2.1,0
		c2,3.1,1.9,6.5,1.9,10c-0.1,2.3-0.8,3.9-3.2,4.3c-1.9,0.3-3.1,1.3-3.2,3.2c-0.1,4.8-4,8.4-4.1,13.2c0,0.5-0.8,1-1.3,1.4
		C763.7,596.4,763.3,596.4,762.9,595.9z"/>
	<path class="st1" d="M952.1,657.9c-3.6,6.4-9.3,10.7-15,14.9c-3.7,2.8-7.4,5.6-11.1,8.4c-3.4,2.6-7.6,4.4-11.9,5.8
		c-1,0.5-2.1,0.7-3.1-0.1c3.3-2.2,6.9-4.2,10.7-5.3c3.1-0.9,4.6-3.7,7.1-5.2c8.3-5,15.2-11.6,21.9-18.5
		C951.3,657.3,951.7,657.4,952.1,657.9z"/>
	<path class="st1" d="M959,816c1.5,1.7,2.1,4.6,5.6,2.5c1.4-0.9,3.1,0.4,3.5,2.4c0.3,1.4,0.6,2.9,0.8,4.3c-3.4,0.3-6-0.3-7.8-4
		c-1.5-3-4.5-4.8-8.3-5.4c-6.3-1.1-7.4-3.7-3.9-7.8c1.6-1-0.2-3.1,1.4-4.1c0.3,3,2.6,5.5,2.1,8.7c-0.1,1.1,0.7,1.3,1.5,1.6
		C955.6,814.6,957.3,815.3,959,816z"/>
	<path class="st1" d="M817.9,846.3c-3.5-1.7-5.2-8.5-2.5-11.3c1.2-1.3,0.6-2.6,0.9-3.4c1.4-3.6-1.4-8.5,3.5-11.1
		c1.7-0.9,2.3-3.3,2.3-5.7c0-5.6-0.2-11.2-1.2-16.8c2.4,3,2.4,6.8,2.6,10.3c0.2,2.4-0.6,4.8,0.1,7.3c0.4,1.5-0.5,3.3-1.5,4
		c-3.2,2.3-3.2,5.8-4,9.1c-0.5,2-1,3.2,1.9,2.9c1.6-0.2,1.6,0.1,2.6,2.9c-7.1,0.6-8.6,3.9-4.9,10.4
		C817.9,845.2,817.8,845.8,817.9,846.3z"/>
	<path class="st1" d="M818.1,561c0.7-0.3,1.4-0.7,2.1-1c-0.7,5.6-0.3,11.3-0.6,16.8c-0.5,9,1.9,17.8,0.6,26.7
		c0.4,0.9,0.5,1.8-0.3,2.6c-1.7-2.8-2.5-5.8-1.1-9c0.1-0.3,0.2-0.7,0.2-1c-2-7.4-0.6-15-1.6-22.3C816.7,569.4,817.9,565.3,818.1,561
		z"/>
	<path class="st1" d="M817,777.9c-1.7-4.1-1.7-8.3,0.1-12.4c2.5-5.7,4.2-11.5,1.4-17.7c-0.3-0.6-0.4-1.3-0.1-1.9
		c2.7-5.5,1.1-11.4,1.4-17c0.4-0.6,0.8-0.6,1.2-0.1c1.6,5,0.7,10,0,15c-0.3,2-0.7,3.7-0.2,5.8c1.3,5.3,0.8,10.6-1.6,15.5
		c-2.1,4.2-0.8,8.5-1,12.7C817.9,778.2,817.5,778.3,817,777.9z"/>
	<path class="st1" d="M898,748.9c0.2,4.2,0.7,8,5.7,9.5c2.4,0.7,2.8,4.1,5,5.3c9,4.6,13.8,12.7,18.3,21.2c0.5,0.8,0.6,1.6-0.2,2.3
		c-1.6-0.8-1.6-2.4-1.9-3.8c-0.4-1.7-0.9-3.5-2.2-4.3c-4.4-2.8-6.6-7.3-9.4-11.3c-1-1.4-2-2.2-3.7-1.2c-3,1.6-4-0.3-4.3-2.7
		c-0.3-2.2-1.1-4.2-3.3-4.4c-4.5-0.4-5.3-3.2-5.2-6.9c0-1.2-0.1-2.3-0.1-3.5C897.2,748.6,897.6,748.6,898,748.9z"/>
	<path class="st1" d="M672.9,855.9c3.9-11,7.5-22.1,12.1-32.9c1.3-3.1,3.3-6.3,3-10c0.7-0.6,1.4-0.6,2.1,0c0.2,3.3-1.7,6-2.7,8.9
		c-4.1,11.1-8.4,22.2-12.6,33.3c-0.4,1.1-0.6,2.2-1.6,3C672.4,857.5,672.4,856.7,672.9,855.9z"/>
	<path class="st1" d="M821.2,728.9c-0.4,0-0.8,0-1.2,0.1c-1-2.5-2.5-4.9-0.3-7.7c1.7-2.2,0.2-5,0.3-7.4c0.2-8.4,2.6-17-0.6-25.4
		c-0.7-2-0.3-3.6,1.6-4.6c2-0.8,3.6-2.1,4.2-4.2c1.7,2.3,1.3,4.3-1.4,5c-2.8,0.8-3.3,2.2-2.6,4.7c2.3,8.2,0.2,16.5,0.6,24.7
		C822.1,719.1,820.1,723.9,821.2,728.9z"/>
	<path class="st1" d="M1005.1,624.9c0-0.3,0-0.6,0-0.9c0.6-1.2,1.4-2.6,0.5-3.7c-1.1-1.4-3.2-2.2-1.1-4.3c1.8-1.6,3.3-0.4,4.9,0.6
		c1.1-2,0.4-3.5-1-4.9c-1-1-2.4-2-1.4-3.8c0-3-0.7-6.3,3.8-7.2c1.9-0.4,1.4-2.3,0.8-3.7c-0.7-1.5-1.8-2.9,0.3-4.2
		c0.5-0.3,0.9-0.3,1.3,0.2c-0.7,1.7,0.5,3.2,0.6,4.8c0.2,2.2,0.7,4.4-2.6,5.5c-3.3,1.1-2.6,5-1.4,6.6c3.1,3.8,2.3,7.7,2,11.8
		c-2.4,1-4.1,2.6-4.6,5.3C1005.2,627.7,1005.9,625.5,1005.1,624.9z"/>
	<path class="st1" d="M575.9,755c1.5,0.8,1.9,2.3,2,3.8c0.8,11.3,6.8,20.3,11.9,29.9c2.4,4.4,6.7,7.9,7.2,13.3
		c-0.4,0.6-0.7,0.6-1.2,0.1c-3.2-5.1-7-9.9-9.5-15.3c-4.3-9.2-10.1-17.9-10.5-28.6C575.4,757.1,575.3,756.1,575.9,755z"/>
	<path class="st1" d="M868,720.9c0.4,0.9,1.2,1.7,1.1,2.8c-2.6-0.8-4.9-2.4-6.4-4.3c-3.2-4.5-7.8-6.7-12.6-8.5
		c-3.5-1.3-5.7-3.9-7.1-7.2c-2-5,0.2-8.1,5.5-7.3c1.9,0.3,3.6,0,5.4-0.5c0.7-0.5,1.4-0.6,2,0c-0.2,3.5-3,2.8-5.1,3
		c-2,0.2-4.5-0.2-4.9,2.2c-0.3,2.2,0.7,4.5,2.9,5.8c1.9,1.2,3.8,2.4,6.2,2.9c2.4,0.6,4.5,2.1,6.1,4.1c1,1.3,2,2.7,3,4
		C865.7,718.5,867,719.5,868,720.9z"/>
	<path class="st1" d="M472,484.9c-0.7,3.6-1,7.2-1.1,10.9c0,2.1-0.1,4.6-1.3,6.2c-3.3,4.7-3.6,9.4-2.8,15c0.9,7.2,0.7,14.7,0.3,22
		c-0.1,2.5-0.6,4.9-1.9,7.1c-0.7-0.3-0.8-0.7-0.4-1.3c1.2-4.9,0.9-9.7,0.8-14.7c-0.1-6.4,0.1-12.7-0.9-19.1
		c-0.2-1.4,0.2-3.1,0.9-4.3c3.5-5.8,4.4-12,4.2-18.6c0-1.1,0-2.3,1-3.2C471.3,484.3,471.7,484.4,472,484.9z"/>
	<path class="st1" d="M648.9,915.9c0.8-3.6,2.7-6.9,4.1-10.3c3.7-8.7,6.7-17.6,10.1-26.5c0.6-1.7,1-3.6,3.1-4.1
		c0.1,5.1-2.8,9.1-4.6,13.5c-4,9.9-7.2,20.2-12.5,29.6C648.4,917.5,648.4,916.7,648.9,915.9z"/>
	<path class="st1" d="M1007.1,626.9c-0.7-3.8,0.9-5.7,4.8-5.3c-2.1,2.3-4.4,4.6-1.2,7.9c0.5,0.5,0.7,1.9,0.3,2.3
		c-2.7,3-1.5,8.2-5.9,10.1c-1.9,0.8-2.2,2.3-2.1,4.1c-1.1,0.4-1.8-0.2-2.4-1c-0.6-1.6-0.2-3.1,1.2-3.9c3.8-2,2.1-4.2,0.4-6.5
		c-0.4-0.6-0.8-1.1-1.2-1.7c-0.7-1.3-0.9-2.6,0.5-3.4c2.3-1.4,4,0.3,5.9,1.5C1007.9,629.6,1005.4,628.3,1007.1,626.9z"/>
	<path class="st1" d="M499.9,501.9c-3.4-5.1-7.3-9.9-8.9-16c0.7-0.6,1.4-0.6,2.1,0c3,5.8,6.3,11.3,10,16.6c1.2,1.7,2.5,3,2.2,5.2
		c-0.3,2.3,1.7,3.5,2.9,5c1.1,1.6,4,2.2,3,5.1c-3.7-2.9-7.9-5.4-8.1-10.9C501.8,505.3,500.6,503.8,499.9,501.9z"/>
	<path class="st1" d="M465,764.9c3.7,4.1,5.7,9.2,8.8,13.7c1.6,2.3,0.1,4-0.6,6c-1.5,3.9-2.8,7.8,0.7,11.4c1,1.8,0.4,3.7,0.4,5.6
		c-0.3,0.5-0.8,0.7-1.3,0.6c-0.8-2.2-0.9-4.5-3.4-6.1c-2-1.3-1.3-8.4,0.5-11.1c3-2.2,2.9-4.5,0.8-7.6c-2.7-4.1-4.5-8.8-8.1-12.3
		c-0.2-0.3-0.3-0.5-0.3-0.8c0-0.3,0.1-0.4,0.2-0.4C464,763.3,464.4,764.3,465,764.9z"/>
	<path class="st1" d="M496.9,717.9c0,3.3,0.1,6.7,0.1,10c0.3,7.4,0.6,14.7-0.6,22.1c-0.6,3.6,0.9,7.4,0.5,11.3
		c-0.4,3.8-1.2,7.4-2.7,10.9c-0.8-0.8-0.7-1.7-0.3-2.6c0.1-0.9,0.1-1.8,0.2-2.7c1.1-4.9,0.2-9.8,0.5-14.7c0.1-1.8-0.5-3.6,0.5-5.3
		l0,0c0.3-5.3,1.1-10.7,0-16c-1.3-1-1.3-2,0-3.1c1.1-2.5,0.2-5.1,0.5-7.6C495.7,719.4,495.1,717.9,496.9,717.9z"/>
	<path class="st1" d="M822.4,674.1c-1.2-1.1-1.3-2.2,0-3.3c1.2-1.7,1.1-3.7,0.1-5c-1.7-2.2-0.8-3.9-0.1-5.9c0.4-3.4,0.7-6.7-5.1-5.9
		c4.4-3.8,8.9-7.2,4.1-13c-0.5-0.7-0.5-1.4,0-2.1c3.6,2.5,4.1,6.5,2.8,9.8c-1.8,4.7-0.4,9.4,0,13.5c0.4,5.6-0.9,11.1,0.3,16.6
		C821.4,678.4,824.3,675.2,822.4,674.1z"/>
	<path class="st1" d="M952.1,657.9c-0.4,0-0.9-0.1-1.3-0.1c2.4-3.9,4.7-7.9,7.3-11.7c5.8-8.5,9.1-18.3,13.8-27.3
		c0.4-0.5,0.8-0.5,1.1,0.1c-3.2,7.9-5.8,16.1-10.6,23.4C958.9,647.5,955.5,652.7,952.1,657.9z"/>
	<path class="st1" d="M936.3,760.8c-0.4,0.1-0.9,0.1-1.3,0.2c-3.4-4.3-9.2-5-12.9-8.8c-1.9-2-3.1-3.5-2.2-6.4
		c0.9-2.9-0.1-5.2-3.3-6.1c-2.5-0.8-4.2-2.6-5.7-4.5c-0.3-0.5-0.2-1,0.2-1.3c4,1.1,6,5.3,10,6.7c1.1,0.4,0.6,2.8,0.8,4.2
		c0.3,1.4-1.6,3.3-0.1,4.2c2.7,1.6,3.6,5.2,7.1,6C932.2,755.6,934.6,757.9,936.3,760.8z"/>
	<path class="st1" d="M648.9,915.9c0.1,0.8,0.1,1.5,0.2,2.3c-0.4,2.8-0.5,6.6-3.9,6.5c-2.9-0.1-2.8-3.9-3.5-6.4
		c-1.2-4.1-1.1-8.6-3.8-12.2c-1.3-2.6-3.1-4.9-3.6-7.9c0.1-0.5,0.4-0.9,0.7-1.2c4.5,6.5,7.3,13.8,8.9,21.5c0.2,1.1,0.1,2.3,1.4,3
		C648,920.5,647.3,917.4,648.9,915.9z"/>
	<path class="st1" d="M632,787c2,1.9,1.7,4.5,1.9,6.9c-3,1.4-0.7,6.4-5.1,6.7c1,2.2,2.3,3.3,4.3,3.6c-0.2,1.5-1.3,1.3-2.3,1.2
		c-2.6-0.8-5.1-1.7-5.6-4.8c-0.2-2.4,0.3-4.6,1-6.9c1-3.3,2-3.7,6-2.7C630.9,789.7,630.8,788.3,632,787z"/>
	<path class="st1" d="M995,841c-2.1-1.4-3.7-3.2-5.2-5.3c-1.2-1.8-2.4-3.9-5.5-3.2c-1.1,0.3-2.9-0.1-2-2.2c0.4-0.9,0-1.6-0.6-2.2
		c-3.9-3.9-6.3-8.9-9.7-13.1c2.3-0.6,2.9,1.3,3.7,2.6c2.4,4.4,6.3,7.6,9,11.6c1.4,2,3.6,1,5.6,1.3c-0.8,2.9,1,4.6,2.8,6.3
		C994.3,838,995.7,839,995,841z"/>
	<path class="st1" d="M991,535.9c-2.9-2-5.4-3.7-2.9-8.2c1.3-2.3,0.3-5.9-2.1-8.4c-1.6-1.6-3.7-2.8-4.1-5.3c0.3-0.4,0.7-0.4,1-0.1
		c3.1,2.7,7,4.7,7.5,9.7c0.2,2.1,4.4,2.3,4.2,5.5c-0.2,0.2-0.3,0.6-0.6,0.6c-1.7,0.2-3.8-1.5-5,0.6c-1.1,1.9,1.2,2.7,1.8,4.1
		C991.2,534.9,991,535.4,991,535.9z"/>
	<path class="st1" d="M968.9,825.1c2.9,0,2.7,2.3,3.2,4.1c0.8,3.2,1.4,6.4,5.1,7.6c1.7,0.5,3,1.1,5-0.2c2.8-1.8,4.6-0.5,5.9,3.1
		c-0.6-0.3-1.1-0.5-1.7-0.8c-1.2-0.4-2.2-2.1-3.7-0.1c-1.8,2.5,1.2,1.9,1.7,2.9c0.2,0.5,0.9,0.9,1.4,1.3c0.4,2.7-1.6,2.2-3.1,2.3
		c-1.5,0.1-2.7-0.7-2.9-2.1c-0.2-1.7-0.8-3.1-1.6-4.5c-4.9-0.9-6.6-4.7-7.3-8.9C970.5,828.1,969.7,826.6,968.9,825.1z"/>
	<path class="st1" d="M822,639c0,0.7,0,1.4,0,2.1c-1.2-1.5-2.4-3-3.6-4.6c6.8-5.5,7.4-10.6,2.1-17.7c-2-2.7-4.1-5.3-0.9-8.7
		c0.7-0.7,0.2-2.6,0.3-3.9c0.1-0.9,0.2-1.7,0.3-2.6c1.7,2.4,1.8,5.4,0.8,7.6c-1.4,3.4,0.2,5.4,1.8,7.7c3.4,4.6,3.4,12.4-0.6,16.6
		C820.9,636.8,821.9,637.8,822,639z"/>
	<path class="st1" d="M685,731c-4.3,4.5-5.7,10.3-6.8,16.2c-0.7,3.6-1.9,6.9-4.4,9.8c-2.2,2.5-2.8,6-3.5,9.2
		c-0.4,1.8-0.5,3.6-2.2,4.8c0.6-6.5,2.4-12.5,6.3-17.9c1.9-2.5,2.4-5.8,3-8.9c1-5.4,3.2-10.1,6.5-14.3c0.4-0.3,0.8-0.3,1.3-0.1
		C685.5,730.2,685.4,730.6,685,731z"/>
	<path class="st1" d="M588.9,697c-0.6,1.7,0.3,3.3,0.2,4.9c-0.4,0.4-0.8,0.5-1.2,0.3c-2.9-10.1-5.7-20.2-10.7-29.5
		c3.1,0.7,3.7,3.7,4.7,5.9C584.6,684.5,587.4,690.5,588.9,697z"/>
	<path class="st1" d="M781.1,506c-0.2-1.8,2-1.4,2.4-2.7c-0.8-1-1.6-2.1-2.4-3.1c-0.8-1-2.6-1.3-2-3c0.6-1.6,1.9-0.6,3-0.5
		c1.1,0.1,1.4-0.6,1.6-1.5c0.5-1.7,1-3.5,1.3-5.2c0.7-4.2,0-5.1-4.2-6c-1.5-0.3-3-0.4-3.8-1.9c3-1.7,5.8-0.3,8.3,1.1
		c2.2,1.3,3,3.6,2.2,6.4c-1.2,4.2-2.7,8.4-2,12.9C785.6,505.7,785.1,508,781.1,506z"/>
	<path class="st1" d="M900,695c-1.3,2-3.1,3.6-5,5c-2.4,1.3-4.6,1.9-7.2-0.2c-2-1.5-4.7-1.1-7.1-0.2c-4.4-0.2-8.5,2.3-13,1.4
		c-1.5-0.3-3-0.3-3.8-1.8c-0.2-0.6-0.1-1.1,0.3-1.5c3.8,1.2,7.4,1.1,11.5,0.1c4.7-1.1,9.9-2.7,14.7,0.9c1.6,1.2,3.2-0.1,4.2-1.5
		C896,695.5,897.6,694.2,900,695z"/>
	<path class="st1" d="M705.1,682c-0.3,0.9-0.4,2-0.9,2.8c-3.8,6.2-5.9,13.2-7.8,20.1c-1.2,4.6-3.4,8.5-6.3,12.1
		c-0.4,0.3-0.8,0.4-1.2,0.1c-0.2-0.4-0.2-0.8,0.1-1.2c4-3.8,5.9-8.8,6.7-14c1.2-7.4,4.8-13.6,8.2-20
		C704.3,681.4,704.7,681.4,705.1,682z"/>
	<path class="st1" d="M784.3,738c0.8-0.5,0.7-1.4,0.8-2.1c1.6,1.1,1.6,3.3,3.8,4.3c2.9,1.3,3,5.1,0.8,7.4c-4.5,4.5-4.7,9.7-0.6,14.1
		c0.9,0.9,1.1,2,0.9,3.2c-1.2,0-1.3-1.4-2.1-1.8c-3.9-2.1-4.9-5.1-3.1-9.1c0.2-0.6,0.1-1.3,0.1-2c-0.8-2.2-0.9-4.2,1.5-5.5
		c4.1-2.2,2.1-3.9-0.5-5.5C785,740.2,784.8,739,784.3,738z"/>
	<path class="st1" d="M922.9,718.8c3.2-2.9,7.5-4.1,10.5-7.2c0.5-0.5,1.5-0.7,2.3-0.7c4.1,0.1,7.2-1.8,9.8-4.9
		c1.2-1.5,2.7-2.5,4.7-2c-2.5,2.4-4.2,6.2-7.5,6.9c-6.4,1.3-11.5,4.6-16.8,8C924.9,719.6,923.9,719.8,922.9,718.8z"/>
	<path class="st1" d="M747.1,638.9c-1.4-3.7,0.8-5.9,3.6-7.7c2-1.3,3.4-2.7,1.4-4.6c-3.1-3-2.3-5.8-0.2-8.8c0.5-0.3,0.9-0.2,1.3,0.2
		c-0.8,2.7-2.8,5,0.7,7.7c2.2,1.7,1.1,5.1-1.6,6.7c-3.4,2-4.2,4.7-2.8,8c1.6,3.7,0.2,5.3-3.4,5.7
		C745.9,643.6,749.2,641.6,747.1,638.9z"/>
	<path class="st1" d="M785.1,501.9c-1.6-1.1-1-2.4-0.5-3.9c0.8-2.7,1.2-5.4,1.8-8.1c0.9-4.5,0.1-6.1-4.4-6.9c-1.6-0.3-3.1-2-4.9-0.9
		c-1-0.3-1.6-1.2-2.2-2c3.2-0.4,6.2,0.8,9.2,1.2c3.3,0.5,5.6,5.3,4.4,8.7c-1.4,3.9-1.6,8-2.4,12
		C785.7,502.4,785.4,502.4,785.1,501.9z"/>
	<path class="st1" d="M839,459.9c-0.3,0.3-0.6,0.7-0.9,1c-3.2-3.4-7.1-1.9-10-0.3c-6,3.2-12.4,3.9-18.9,3.9
		c-2.1-0.3-4.4,0.6-6.4-0.6c0.7-1.8,2.3-2,3.7-1.6c4.1,1.1,8.2-0.1,12.1-0.5c4.5-0.4,8.4-3.6,13-4.4c0.5-0.1,1,0,1.4-0.3
		C836.5,455,838.2,456.5,839,459.9z"/>
	<path class="st1" d="M493.9,769.7c0.1,0.9,0.2,1.7,0.3,2.6c-0.2,5.1,0,10.2,2.1,15c0.1,0.3,0.4,0.7,0.3,0.9
		c-2.8,4.3-2,9.1-1.8,13.8c-2.6-2.5-3.2-5.3-1.9-8.9c1.5-4.1,1.3-8.2-0.4-12.5C491,777,492.7,773.3,493.9,769.7z"/>
	<path class="st1" d="M871,725c1.9-2.3,4.5,2.7,6.4-1.3c-1.6,8.9,5.5,11,10.1,14.9c1.6,1.4,3.6,2.2,5.5,3.3c0.5,0.4,0.4,0.8-0.1,1.2
		c-7.2-3.3-13.7-7.6-18.3-14.3C873.7,727.3,871.6,726.9,871,725z"/>
	<path class="st1" d="M986.9,662.8c0.7-1.3,1.9-1.7,3.2-2c1-0.3,1.9-1,0.9-2.2c-1.3-1.6-1-3,0.9-3.4c2.1-0.5,3.1,0.7,3,2.8
		c0,0.6-0.7,1.2,0.6,1.7c1.9-2.1,4.1-4.2,3.4-7.6c-0.3-0.5-0.3-0.9,0-1.3c2.5-0.1,0.9,2.4,2,3.2c-0.2,3.4-3.6,7.6-6.9,8.2
		c-1.9,0.4-3.9,0.6-5.9,0.8C987.7,663.5,987.2,663.4,986.9,662.8z"/>
	<path class="st1" d="M937,512.9c6.3,5.5,12.9,10.6,18,17.3c1.1,1.4,2.6,2.5,3.9,3.7c0.7,2.2,1.5,4.5,2.2,6.7
		c0.4,0.8,0.5,1.7-0.3,2.4c-3.6-10-11.1-17-18.9-23.7C940,517.6,937.4,516.1,937,512.9z"/>
	<path class="st1" d="M769,472.9c1.3,2.3,3.5,4.1,4.1,6.8c-3.5-2.1-5.4-6.5-10.1-7.1c-1.1-0.1-2.1-1.8-1.3-3.2
		c0.9-1.6,2.9-2.2,4.4-1.5c4,2,8.1,0.8,12.2,0.7c1,0,1.9-0.4,2.8-0.7c0.7-0.6,1.3-0.6,2,0c-2.2,3.4-6.4,0.8-9,3
		c-2.4,1.1-5,0.2-7.7,0.4C767.4,471.8,768.4,472.1,769,472.9z"/>
	<path class="st1" d="M742.1,583c-0.8,3.9-2.1,7.6-3.7,11.2c-2.7,6-3.9,12.2-3.4,18.7c-0.4,0.5-0.8,0.5-1.2,0.1
		c-1.6-2.8-1.3-6-0.4-8.6c2.5-7.9,5.8-15.5,7.9-23.5c0.1-0.4,0.6-0.7,0.9-1C742.8,581,742.6,582,742.1,583z"/>
	<path class="st1" d="M693.9,799.9c1.6-6.1,4.1-11.8,6.5-17.5c1.4-3.3,1.8-6.2,0.6-9.5c1.8-0.5,2.1,1.1,2.9,2.1
		c-0.2,4.2-1.7,8-3.1,11.8c-1.7,4.5-3.7,8.9-5.5,13.3C694.8,800.4,694.3,800.4,693.9,799.9z"/>
	<path class="st1" d="M922.9,718.8c1,0,2,0.1,3,0.1c-3.8,3.7-8.9,2.7-13.5,3.7c-1.6,0.4-3.5-0.9-4.6,1.4c-1.1,2.4-1.2,4.9,0.2,7.2
		c0.7,1.1,1.9,1.8,2.9,2.6c-0.1,0.4-0.1,0.9-0.2,1.3c-2.9-1-4.6-3-5.3-6c-1.2-5,1.2-7.9,6.5-8C915.7,721.1,919.5,720.6,922.9,718.8z
		"/>
	<path class="st1" d="M493.1,485.9c-0.7,0-1.4,0-2.1,0c-2.1-2.9-2.9-6.2-3.1-9.7c-0.1-2.2-0.6-4.2-2.7-6.5c-1.7,4.3-4.9,6.8-8.4,9
		c-0.6,0.8-1.3,0.7-1.9,0.1c2.5-3.5,7.5-4.7,8.7-9.6c0.4-1.7,2.6-1.3,3.5,0.2c0.8,1.2,1.8,2.7,1.7,4
		C488.6,478.3,491.3,481.9,493.1,485.9z"/>
	<path class="st1" d="M823.1,534c0.2-2.8-0.4-5.6,0.5-8.4c0.7-2.1-0.5-3.5-2-4.7c-2.4-1.9-3.2-4.1-1.6-6.9c1.9-3.4-1.2-5.5-2.2-8.1
		c0.1-0.7,0.1-1.3,0.2-2c1.3,2.3,4,4.8,3.7,6.7c-1,5.2,1.6,8.9,3.1,13.3C825.6,526.6,826.5,531.2,823.1,534z"/>
	<path class="st1" d="M479.8,846.9c-0.8,0.5-1.5,1.1-1.8,2.1c-1.1,1.5-0.9,3.5-2.1,5c-2.3-2.1-0.2-3.8,0.5-5.6
		c0.5-1.3,2.6-2.8-0.5-3.6c-0.2,0-0.4-0.2-0.4-0.2c0.5-5.4-4-9.3-4.4-14.4c2.3-2,3.7-0.4,5.1,1.4c-1.4,4-0.2,7.5,3.4,10.2
		C481.7,843.3,480.4,845.1,479.8,846.9z"/>
	<path class="st1" d="M784.9,564.6c0.1,1.1,0.1,2.2,0.2,3.3c-1.1,3.5-1.7,7.1-0.3,10.7c1.1,2.9-0.7,5.5-0.8,8.3
		c-1.2,1.9,0,4.1-0.8,6c-0.4,0.4-0.9,0.4-1.4,0c-0.2-0.5-0.5-0.9-0.5-1.4c1.2-6.1,1.9-12.1,0.6-18.4
		C781.5,570.4,782.8,567.2,784.9,564.6z"/>
	<path class="st1" d="M575.9,755c0,1,0,2,0,3.1c-2.7-2.6-2.3-6.4-3.3-9.5c-1-3.1-2.6-5.7-3.6-8.7c-0.7-2.2-0.4-4.7-3-6.2
		c-1.2-0.7-0.4-2.7-0.4-4.2c0.1-0.6,0.4-0.9,1-1.1c3.3,1,3.4,4,3.9,6.7c0.4,1.9-0.6,3.9,0.6,5.8c4.2,2.8,2.4,7.7,4,11.4
		C575.5,753.2,575.1,754.3,575.9,755z"/>
	<path class="st1" d="M742.1,583c0-1,0-2-0.1-3c1.3-4,2.5-8.1,3.8-12.1c1.3-2.1,4.3-2.3,5.2-4.9c0.2-0.2,0.5-0.3,0.8-0.3
		c-0.1,2.7,1,5.9-3.6,6c-1.3,0-2.3,2.3-1.8,3.2c1.6,2.7-2.8,5.2,0,7.8c0.6,0.5-0.4,1.1-1.1,0.9C743.2,579.9,743.4,582.4,742.1,583z"
		/>
	<path class="st1" d="M667.1,772.1c-3.6,9.2-7.2,18.4-10.8,27.6c-0.4,1.1-0.7,2.2-2.2,2.3c2.7-9.7,7.1-18.8,10.8-28.1
		C665.2,773,665.8,772.1,667.1,772.1z"/>
	<path class="st1" d="M470.2,785.1c-0.7,4.1-2.5,8.3,1.7,11.7c1.6,1.3,0.6,3.4,0.9,5.1c2.3,4.3,0.9,8.2-1.4,12
		c-0.4,0.4-0.9,0.4-1.3,0c-0.7-3.7,2.5-6.8,1.3-11c-0.6-2.2-0.2-4.1-2.4-6c-2.5-2.1-0.3-6-1.5-9
		C466.9,786.8,468.5,785.3,470.2,785.1z"/>
	<path class="st1" d="M491,617.9c-0.4-4,2.2-4.1,5.1-3.4c0.7-2.7-0.9-5.1-0.2-7.6c1.9,1.9,1.6,4.6,1.9,6.9c0.5,4.4-3.4,1.8-5.5,2.5
		c1.7,2.3,6.9,1,5.6,5.7c-0.6,0.5-1.3,0.5-1.9,0C492.9,622.4,492.6,619.4,491,617.9z"/>
	<path class="st1" d="M950.3,803.8c-0.4,1.4,0.5,3.2-1.4,4.1c0.2-1.8,0.7-3.6-0.4-5.7c-2.9,2.3-6.1-0.7-9.5,0.9
		c-2.1,1-4.5-1.6-4.9-4.3c-0.2-1.7-0.7-3.2-1.2-4.7c2.2-0.6,2.6,0.9,2.6,2.4c0,1.7,0.5,3.2,1.6,4.5c3.3-1.3,6.8,0.1,10.2-0.9
		C950.3,799.2,950.1,801.8,950.3,803.8z"/>
	<path class="st1" d="M785.1,501.9c0.3,0,0.6,0,1,0c0.2,2.6-0.3,4.7-2.1,6.8c-2.1,2.6-3.6,5.8-4.6,9.2c-0.8,2.5-1.6,5.5-4.3,7
		c0.8-4.7,2.3-9.2,4.9-13.2c-0.3-2.1,0.9-3.8,1.3-5.7C784.5,506.6,785.7,505.2,785.1,501.9z"/>
	<path class="st1" d="M491,830c1-2,2-3.9,3.1-5.9c0.5-0.4,0.8-0.3,1,0.3c0.2,1.9-0.6,3.7-1.6,5.1c-1.3,2.1-1.5,3.5,0.4,5.1
		c1.3,1.1,1.7,3,0,3.7c-4.4,1.9-4,5.6-3.9,9.3c0,1.8-0.1,3.7-0.1,5.5c-0.5,0.2-1,0.1-1.3-0.4c-0.2-3.1,0-6.3-0.1-9.4
		c0-0.5-0.2-1.2,0-1.5C491.8,838.3,490.6,834,491,830z"/>
	<path class="st1" d="M994.9,847.9c0-0.6,0-1.2,0-1.8c0-1,0.3-1.8,1.3-2.3c1.8,0.7,2.6,2.6,4.6,3.3c2.5,0.8,1.7,3,1.2,4.8
		C995.8,854.5,994.4,853.8,994.9,847.9z"/>
	<path class="st1" d="M972.1,814.8c-2.9-0.1-4.2-2.5-3.1-4.2c2.7-4.4,0.3-5.6-3.2-6.6c-0.2-0.5-0.1-0.9,0.3-1.2
		c2.1,0.1,4.3,0.8,5.8-1.6c0.6-1,1.7-1.1,2.6-0.2c1,1,1.2,2.3,0,3C970.1,806.9,970.8,810.8,972.1,814.8z"/>
	<path class="st1" d="M973,618.9c-0.4,0-0.8,0-1.1-0.1c0.6-9.1,2.6-18.1,3-27.3c0-1,0.3-2,1.1-2.7c0.7,8.4-0.6,16.6-2.3,24.7
		C973.3,615.4,973.3,617.1,973,618.9z"/>
	<path class="st1" d="M470,813.9c0.3,0,0.7,0,1,0c0.8,0.7,1.3,1.7,1,2.7c-1.2,4.8,0.1,8.2,4.5,10.8c1.6,0.9,1.6,3.2-0.7,4.3
		c-1.6-0.4-2.6-2.8-4.8-1.6c0.1-0.8,0.6-2.1,0.3-2.3C466,823.6,470,818.6,470,813.9z"/>
	<path class="st1" d="M753.1,618c-0.4-0.1-0.8-0.1-1.3-0.2c3.4-7.4,3.8-16.4,11.1-21.9c0.4,0,0.9,0.1,1.3,0.1
		C757.6,601.8,757.5,611,753.1,618z"/>
	<path class="st1" d="M504.5,571.1c0.1-0.8,0.1-1.6,0.2-2.3c8.2,5.2,9.1,13.6,9.9,22.2c-4.2-1.5-1.3-5.6-3-8.1
		C510.6,578.1,508.7,573.9,504.5,571.1z"/>
	<path class="st1" d="M781.9,593c0.4,0,0.8,0,1.1,0c1.4,3.2-0.4,6.8,1,10c0,1.7,0,3.3,0,5c-1.9,6.3-1.4,12.7-1.1,19.1
		c-0.3-0.1-0.6-0.1-0.9-0.1c-1.4-3.5-1.9-7.3-1.1-10.7C782.6,608.5,781.7,600.7,781.9,593z"/>
	<path class="st1" d="M511.1,517.8c0-2.3-2.7-3-3-5.1c3.8,2,6.2,4.8,6,9.3c-0.1,2.8,2.2,4.4,3.2,6.6c0.7,1.7,1.2,3.4,1.8,5.1
		c-0.3,0.4-0.7,0.5-1.2,0.3c-2.5-2.6-3.2-6.2-5-9.2C511.8,522.7,512.5,520,511.1,517.8L511.1,517.8z"/>
	<path class="st1" d="M526.1,617.9c-0.4,0-0.8,0.1-1.2,0.1c-1.9-7.6-4.5-15-7.9-22.1c4.4,2.3,4.9,7.2,6.6,11
		C525.1,610.3,526.1,614.1,526.1,617.9z"/>
	<path class="st1" d="M720.9,650.9c-3.1,3.9-3.4,9.3-6.9,13.1c-0.6-0.7-0.5-1.5-0.1-2.3c2.6-6,6.4-11.5,6.2-18.5
		c-0.1-1.7,1.8-3.1,2.9-4.5c1,1,0.7,2.1,0.1,3.2l0,0C721.4,644.7,722.4,648.1,720.9,650.9z"/>
	<path class="st1" d="M725.1,710c2.9-1.6,4.2-4.5,5.8-7.1c0.3,1.2,0.1,2.4-0.6,3.3c-2.1,2.8-4.1,5.4-1.6,9.2c0.6,1-0.3,2.7-1.5,3.4
		c-1.2,0.7-2.1-0.2-2.9-1.1c-2.1-2.3-1.5,0.9-2.4,1.2c-0.4,0.4-0.8,0.4-1.2,0c0.1-2.9,0.7-5.2,4.6-4.1
		C725.3,713.2,723.4,711.6,725.1,710z"/>
	<path class="st1" d="M983,513.9c-0.3,0-0.7,0.1-1,0.1c-0.6-0.7-1.2-1.4-1.8-2.2c-2.8-2.6-3.4-7-7.1-9c-1.4-1.6-2.8-3.2-4.2-4.8
		c-0.3-0.7-1.5-1.2-0.8-2.2C975.1,500.2,979.9,506.3,983,513.9z"/>
	<path class="st1" d="M733.7,613.1c0.4,0,0.8-0.1,1.2-0.1c0,1.3,0,2.6,0,3.9c-3.4,2.9-1.3,7.9-4,11.1l0,0c-4.9,1.1-6.9,4.8-8.1,9.2
		c-2.1-6.1-1.4-8.2,4.5-10.2c2.3-0.8,3.7-1.4,2.7-4c-0.7-2,0.4-3.6,1.7-4.9C733.1,616.6,734.2,615.2,733.7,613.1z"/>
	<path class="st1" d="M476,854c0.3-1.8,0.2-3.8,2.1-5c-0.7,2.8-0.1,5.5,1.5,8.3c2-0.6,4.2-3.7,6.5-0.4c-0.3,0.6-0.7,0.6-1.2,0.1
		c-1.5-0.4-2.4,0.2-3.2,1.6c-0.7,1.4-2,2.4-3.6,1.8c-1.7-0.6-2.5-1.9-2-3.9C476.3,855.7,476,854.8,476,854z"/>
	<path class="st1" d="M761.9,548.8c1.4-3.4,2.2-6.9,1.2-10.6c-0.4-1.4-0.4-2.7-2.4-2.1c-0.9,0.3-1.9,1-2.5-0.3
		c-0.5-1,0.1-1.9,0.9-2.6c1-0.9,2.2-1.2,3,0.1c1,1.6,2.5,1.4,3.9,1.5c0.3,0.4,0.5,0.8,0.5,1.3c-0.9,4.4,0.1,9.2-3.2,13
		C762.8,549.2,762.3,549.2,761.9,548.8z"/>
	<path class="st1" d="M766,535.9c0-0.4,0-0.7,0-1.1c6.9-4.3,7.7-12.2,10.8-18.7c0.8-1.7,0.6-4,3.1-4.4c-1.6,4.4-3.3,8.8-4.9,13.2
		l0,0c-1.6,3.6-1.6,8.1-6,10l0,0C768.1,535.7,767.3,536.6,766,535.9z"/>
	<path class="st1" d="M458.8,686.2c1.3,0.7,0.9,2,1,3.1c0.4,11.2,0.4,22.5,0.2,33.7c-1.3-1.2-0.9-2.8-0.9-4.2
		C459,707.9,458.9,697,458.8,686.2z"/>
	<path class="st1" d="M712.1,755c-0.4-2.5,0.3-4.7,1.9-6.4c2.3-2.4,2.5-5,1.4-7.7c-0.9-2.3-0.6-4.7-1.3-7c-0.6-0.6-0.5-1.3-0.2-2.1
		c5.5,0.5,2.8,4.5,3,7.2l0,0c0.6,3,2.7,5.9,0.2,8.9c-2.7,1.6-4.1,3.8-4,7C712.7,755.4,712.4,755.4,712.1,755z"/>
	<path class="st1" d="M496,622.1c0.6,0,1.3,0,1.9,0c2,1.8,2.4,4.1,2.3,6.6c0,2.1-0.5,4.2,0.6,6.2c-1.9,0.5-3.8,0.8-5.3-0.9
		c-1.2-1.3-2.4-0.5-3.6,0c0.2-1.7,0.6-3,2.8-2.1c1.1,0.5,2.3,1.7,3.5,0.1c1.1-1.5,0.8-3.1,0.4-4.7
		C498.1,625.3,496.1,624.2,496,622.1z"/>
	<path class="st1" d="M635.1,896.9c-0.1,0.4-0.1,0.9-0.2,1.3c-1.6,0.2-1-1.7-1.9-2.2c-2.3-4.8-4.6-9.6-6-14.7
		c-0.4-0.6-0.3-1.1,0.3-1.6C630.8,885,632.8,891,635.1,896.9z"/>
	<path class="st1" d="M817,777.9c0.4,0,0.8-0.1,1.2-0.1c2.4,3.4,3.7,6.8,0.5,10.6c-0.6,0.7-0.4,2.2-0.6,3.3
		c-0.1,0.8-0.2,1.6-0.3,2.4c-1.9-1.4-2.4-3.2-1.3-5.2C818.7,785.3,818.1,781.6,817,777.9z"/>
	<path class="st1" d="M722.9,637.1c0.6-7.7,1.4-8.6,8.1-9.2c-3.4,2.8-7,5.4-6.1,10.8c0.2,1.1-0.7,2.5-1.8,3.3c0-1.1-0.1-2.1-0.1-3.2
		C722.9,638.2,722.9,637.6,722.9,637.1z"/>
	<path class="st1" d="M460,645.9c0,10.6,0,21.2,0,31.8c0,1.1,0.2,2.4-1.1,3.1c0.1-9.9,0.1-19.8,0.2-29.7
		C459.1,649.4,458.5,647.4,460,645.9z"/>
	<path class="st1" d="M716.9,739c-1.8-2.1,1.4-6.1-2.8-7.2c-0.9-1-1-2.6-0.4-3.1c3-2.8,3.8-7.2,7.1-9.9c0.4,0,0.8,0,1.1,0
		c-1.8,3.4-2,7.6-5.7,10c-1,0.7-1,2.1,0.2,2.9C719.5,734.1,718.3,736.5,716.9,739z"/>
	<path class="st1" d="M972.2,564.7c3.1,2.7,3.5,6.7,4.8,10.3c0.8,4.6,0.9,9.3,0,13.9c-0.3,0-0.7,0-1,0c-0.5-5.6,0.8-11.3-1.6-16.7
		c-0.9-1.9-1.7-3.9-2.5-5.9C971.5,565.7,971.6,565.1,972.2,564.7z"/>
	<path class="st1" d="M937,801c-1.6-0.7-1.9-2.1-1.9-3.6c0-1.6-0.4-3-2.2-3.3c-2-2.3-4-4.6-5.9-6.8c0.1-0.8,0.1-1.5,0.2-2.3
		C932.2,789.1,936.5,793.9,937,801z"/>
	<path class="st1" d="M495.1,824.3c-0.3-0.1-0.7-0.2-1-0.3c3.6-6.2,1-12.8,1-19.3c0.6,0.5,1.1,0.9,1.7,1.4c2,3.8-0.3,8,1.2,11.9
		C498.5,820.8,496.8,822.5,495.1,824.3z"/>
	<path class="st1" d="M986.9,662.8c0.4,0.1,0.9,0.2,1.3,0.3c-0.6,5.5-3.9,9.9-6.2,14.7c-0.6,1.3-1.4,2.6-2.9,3.1
		c-0.3-0.2-0.4-0.5-0.3-0.8c0-0.3,0.1-0.4,0.2-0.4C982,674.3,985.1,668.8,986.9,662.8z"/>
	<path class="st1" d="M464.9,544.8c0.1,0.4,0.2,0.9,0.4,1.3c-1.7,4.5-3.5,9.1,1.2,12.9c0,2-2.8,1.9-2.5,3.9
		c-0.3,0.5-0.6,0.5-0.9,0.1c-0.2-2.4,1.1-4.9-1-7.1C461,551.7,462.9,548.2,464.9,544.8z"/>
	<path class="st1" d="M959,491.9c-2.7-3.9-7.4-5.8-10.1-9.8c-0.3-0.5-0.2-1,0.2-1.4c4.1,3.3,9.4,5.4,11.1,11.1
		C959.8,492.4,959.4,492.4,959,491.9z"/>
	<path class="st1" d="M595.9,802c0.4,0,0.8-0.1,1.2-0.1c3.6,6.6,5.3,14,8,21c-0.4,0.6-0.7,0.6-1.2,0.1
		C601.2,816,598.6,809,595.9,802z"/>
	<path class="st1" d="M713.9,661.7c0,0.8,0.1,1.5,0.1,2.3c-2.3,3.8-4.6,7.7-7,11.5c-1.3,2-2.1,4.1-2,6.5c-0.4,0-0.8-0.1-1.2-0.1
		c-0.4-3,0.8-5.5,2.4-7.9C708.9,669.9,711.4,665.8,713.9,661.7z"/>
	<path class="st1" d="M555,696.9c-0.3,5.7,2.8,10.6,4,16c0.6,0.8,0.6,1.6-0.2,2.3c-4-5.4-4.9-11.8-5-18.3
		C554.2,696.6,554.6,696.6,555,696.9z"/>
	<path class="st1" d="M774.2,563.8c-0.7,0-1.4,0-2.1,0c-1.2-1.4-3.9-1-4.4-3.7c3.2,0.2,4.1-3,6.3-4.4c0.4-0.3,0.8-0.3,1.2,0
		c0.3,0.4,0.2,0.8-0.1,1.2C772.7,559,772.8,561.3,774.2,563.8z"/>
	<path class="st1" d="M543.9,679.2c0.1-0.8,0.2-1.7,0.2-2.5c2.1,4.8,6.2,8.6,7,14c0.3,0.8,1.8,1.3,0.8,2.5c-0.4-0.2-1.2-0.3-1.3-0.6
		C549.3,687.7,545.5,684,543.9,679.2z"/>
	<path class="st1" d="M994.9,847.9c0.2,4.7,0.2,4.7,7,4c0.6,0.8,1.2,1.6,1.7,2.4c0.5,0.9,0.7,2-0.5,2.5c-0.8,0.4-1.7-0.1-1.9-1
		c-0.4-1.7-1.6-1.7-3-1.8C993.7,853.5,993.2,852.6,994.9,847.9z"/>
	<path class="st1" d="M489.1,852.9c0.3,0.1,0.5,0.2,0.8,0.2c2.8,1.1,4.5,2.3,2.1,5.6c-1.1,1.6,0.5,4.8-2.9,5.4c0.4-3,2-6.1-0.2-9.1
		C488.4,854.3,488.4,853.5,489.1,852.9z"/>
	<path class="st1" d="M603.9,823c0.4,0,0.8,0,1.2-0.1c1.7,4.9,3.4,9.9,5.1,14.8c0.4,0.8,0.5,1.5-0.1,2.2
		C607.1,834.6,605.3,828.9,603.9,823z"/>
	<path class="st1" d="M693.9,799.9c0.4,0.1,0.9,0.1,1.3,0.2c-0.8,4.7-3.3,8.7-5.1,12.9c-0.7,0-1.4,0-2.1,0
		C691,809.1,691,803.8,693.9,799.9z"/>
	<path class="st1" d="M783,467.9c-0.7,0-1.3,0-2,0c3.7-3.1,8.2-3.8,12.7-3.4c2.1,0.2,4.2,0.3,6.3,0.4c0.5,2-1.5,1.1-2.1,1.9
		c-0.6,0-1.2,0-1.9,0C791.6,465.6,787.3,466.8,783,467.9C783,467.9,783,467.9,783,467.9z"/>
	<path class="st1" d="M571,657.9c0-1,0.1-2.1,0.1-3.1c2.9,5,6.4,9.9,5.9,16.1c-1.4-0.5-1.4-2-2-3c-1.1-2.6-1.6-5.5-3.1-7.9
		C571.1,659.6,571.1,658.7,571,657.9z"/>
	<path class="st1" d="M631,805c0.7-0.1,1.6,0.1,2-0.8c1,0.6,2,1.2,3,1.8c1.8,2.6,4.6,4.5,5.9,7.4c0.2,1.3,0.2,2.6-1,3.6
		c-2.1-4.8-4.6-9.2-10-11c-0.4-0.2-0.5-0.4-0.4-0.6C630.8,805.1,630.9,805,631,805z"/>
	<path class="st1" d="M911,686.9c1,0,2,0,3.1,0.1c-3.6,1.7-7.3,3.3-10.9,5C903.7,687.1,907.3,686.8,911,686.9z"/>
	<path class="st1" d="M463,763.9c0,0.4-0.1,0.8-0.1,1.2c-2-0.1-3-1.7-2.3-3c1.8-3.4,1.6-7.8,5.1-10.3c0.4,0,0.8,0.1,1.2,0.1
		c0.3,2-2.2,3-2,5C464.1,759.2,463.2,761.5,463,763.9z"/>
	<path class="st1" d="M484.9,857c0.4,0,0.8-0.1,1.2-0.1c-0.6,3.2,0.2,6.4,0.3,9.6c0.1,1.9,1.5,1.3,2.5,1.3c0.5,2.1-1,2.9-2.4,2.4
		c-1.8-0.5-3.4-1.9-2.5-4.3C483.9,863,484.1,860,484.9,857z"/>
	<path class="st1" d="M972.2,564.7c-0.1,0.5-0.2,1.1-0.3,1.6c-3.2-4.9-6-9.9-7.9-15.4c0.4-0.4,0.8-0.4,1.2,0
		C967.3,555.6,970.6,559.7,972.2,564.7z"/>
	<path class="st1" d="M956,701.9c2.9-4.1,7.6-6.3,10.9-10.1c0.5-0.4,0.9-0.4,1.3,0.2c-2.4,3.4-5.7,6-8.6,8.8
		C958.6,701.8,957.5,702.6,956,701.9z"/>
	<path class="st1" d="M968.2,692c-0.4-0.1-0.9-0.1-1.3-0.2c4-4.1,8-8.1,12-12.2c0.1,0.4,0.1,0.8,0.2,1.2
		C975.9,685.1,972,688.5,968.2,692z"/>
	<path class="st1" d="M1013.2,593c-0.4-0.1-0.9-0.1-1.3-0.2c1.9-4.6-1.2-8.1-2.8-11.9c0.7,0,1.5,0,2.2-0.1
		C1012.7,584.8,1016.1,588.4,1013.2,593z"/>
	<path class="st1" d="M672.9,855.9c0.1,0.8,0.1,1.5,0.2,2.3c-0.9,4.3-2.7,8.2-5,12C668,864.8,670.6,860.4,672.9,855.9z"/>
	<path class="st1" d="M484,866c1.6,4.2,2.5,4.5,4.9,1.9c0.1-0.3,0.3-0.7,0.4-1c2.1,2,0.4,3.2-1.1,3.9c-1.4,0.7-2.6,3.5-3.9,2
		C482.9,871.1,482.5,868.3,484,866z"/>
	<path class="st1" d="M949.1,480.8c-0.1,0.5-0.2,1-0.2,1.4c-3.7-2.6-8.9-2.2-11.8-6.4C941.3,476.9,945.6,478,949.1,480.8z"/>
	<path class="st1" d="M996.1,843.7c-0.1,0.9-0.3,1.9-1.3,2.3c-3.5-0.5-5.3-2.4-4.9-6c1.2,0,2.3,0.1,2.7,1.6c0.6,2.6,1.6,1,2.6,0.2
		C996.2,842.1,996.2,842.9,996.1,843.7z"/>
	<path class="st1" d="M966.1,802.8c-0.1,0.4-0.2,0.8-0.3,1.2c-0.9-0.4-1.9-0.7-2.8-1.1c-2-2.2-3.1-4.8-3.1-7.9
		c0.1-0.5,0.2-0.9,0.3-1.4C962.4,796.6,963,800.5,966.1,802.8z"/>
	<path class="st1" d="M761.9,548.8c0.4,0,0.7,0,1.1,0.1c-0.8,3.5-4.5,5.3-5,9c-0.6,0.3-1.2,0.7-1.8,1c-0.4-2.5,1.5-4.4,1.2-7.1
		C757.1,549.6,760.7,550.4,761.9,548.8z"/>
	<path class="st1" d="M786,741c2,0.1,3.7,0.7,3.9,2.9c0.2,2-1.5,2.4-2.9,2.9c-2.5,1-1.6,3.4-2.1,5.1c-1.7-2.2-1.6-4.5,0.7-5.8
		C789.2,744.4,787.1,742.8,786,741z"/>
	<path class="st1" d="M747.1,638.9c2.9,2.8,0.7,5-1,7.2c-1.1,1.3-2.3,2.3-3.8,3c-0.5-0.1-0.9-0.2-1.4-0.2
		C743,645.5,747.8,643.9,747.1,638.9z"/>
	<path class="st1" d="M959,491.9c0.4,0,0.8-0.1,1.2-0.1c2.5,1.7,5.8,1.5,7.9,4c0.3,0.7,0.5,1.5,0.8,2.2
		C965.7,495.7,961.1,495.9,959,491.9z"/>
	<path class="st1" d="M618.2,858.7c2.4,3.4,3.6,7.3,4.9,11.2c0.5,0.9,0.6,1.7-0.2,2.4c-2.1-3.8-3.5-7.9-5-11.9
		C617.5,859.7,617.6,859.1,618.2,858.7z"/>
	<path class="st1" d="M558.9,715.2c0.1-0.8,0.1-1.6,0.2-2.3c2.5,2.5,1.9,6.8,5,9c-0.3,0.6-0.8,0.6-1.2,0.1
		C559.3,721.1,558.4,718.6,558.9,715.2z"/>
	<path class="st1" d="M618.2,858.7c-0.1,0.5-0.2,1.1-0.4,1.6c-2.1-3.9-3.9-8-5-12.3c0.4-0.4,0.8-0.4,1.2-0.1
		C615.8,851.4,617.3,854.9,618.2,858.7z"/>
	<path class="st1" d="M965.1,550.9c-0.4,0-0.8,0-1.2,0c-1.9-2.3-3-4.8-3-7.8c0.1-0.8,0.2-1.6,0.3-2.4
		C963.4,543.8,963.9,547.5,965.1,550.9z"/>
	<path class="st1" d="M688.9,715.8c0.1,0.4,0.2,0.8,0.2,1.2c-0.6,2.8-1.7,5.5-1.7,8.5c0,1.8-0.8,3.4-2.4,4.5c-0.4,0-0.7,0-1.1-0.1
		c1.2-2.6,2.1-5.2,2.1-8.1C686,719.4,686.6,717.2,688.9,715.8z"/>
	<path class="st1" d="M864.1,697.7c0,0.4-0.1,0.8-0.1,1.2c-1,0.5-1.8,0-2.5-0.6c-1.2-1.6-2.7-2.6-4.9-2.3c-0.2,0-0.4-0.1-0.6-0.1
		c-0.7,0-1.4-0.1-2.2-0.1C859.2,691.8,860,691.9,864.1,697.7z"/>
	<path class="st1" d="M775,557c0-0.3,0-0.7,0-1c1.6-2,4.3-0.4,6.1-1.9c3.9-0.2,3.3,2.8,3.7,5.1c-1.5-2.1-2.9-3.9-5.9-2.1
		C778,557.6,776.4,557,775,557z"/>
	<path class="st1" d="M978.1,838.8c1.8,0.7,1.4,2.4,1.9,3.7c1.2,3.1,2.9,3.2,5.7,0.6c1.6,0.4,1.3,1.4,0.4,2.1
		c-2.6,2.1-6.3,0.8-7.2-2.5C978.6,841.4,978.4,840.1,978.1,838.8z"/>
	<path class="st1" d="M703.9,775c-1-0.7-1.9-1.4-2.9-2.1c-0.6-2.6,0.1-4.2,3.2-4.1c0.9,0,1.9-0.5,2.8-0.8c0.2,3.5-2.9,2-4.4,2.8
		C701.5,772.7,704.8,773.2,703.9,775z"/>
	<path class="st1" d="M798,466.8c0.7-0.6,1.4-1.3,2.1-1.9c0.9-0.5,1.5-1.5,2.8-1.2c2.5,0.1,4.9,0.3,7.4,0.4c0.2,0.2,0.3,0.4,0.2,0.5
		c-0.1,0.2-0.2,0.2-0.3,0.2C805.7,463.5,802.2,467.3,798,466.8z"/>
	<path class="st1" d="M614,848c-0.4,0-0.8,0-1.2,0.1c-1.3-2.6-2.2-5.3-2.8-8.1c0-0.7,0.1-1.5,0.1-2.2
		C612.4,840.8,613.1,844.4,614,848z"/>
	<path class="st1" d="M795,779.9c0-0.7-0.1-1.5-0.1-2.2c0.5-2.2-0.6-4-1.6-5.9c-0.8-1.5-1.9-3-1.4-4.9
		C794.8,770.9,798.1,774.7,795,779.9z"/>
	<path class="st1" d="M712.1,755c0.3,0,0.6,0,0.9-0.1c-0.3,4.6-2.1,8.5-5.1,11.9C708.3,762.6,711.6,759.3,712.1,755z"/>
	<path class="st1" d="M622.9,872.3c0.1-0.8,0.2-1.6,0.2-2.4c2.7,2.7,2,6.9,4.1,9.9c-0.1,0.5-0.2,1.1-0.3,1.6
		C624.7,878.7,623.9,875.4,622.9,872.3z"/>
	<path class="st1" d="M822.9,674.1c2,1-0.1,3.9,2.1,4.9c0.2,0.2,0.3,0.4,0.1,0.7c0,2.8-1.5,4.2-4.2,4.2
		C824.8,681.3,822.4,677.4,822.9,674.1z"/>
	<path class="st1" d="M1001,654c-1.4-0.6-0.9-2.3-1.8-3.3c0.1-2.1,1.6-3.7,1.8-5.7c0.7,0.3,1.3,0.7,2,1c0.5,1.2,1.4,2.6-0.1,3.4
		C1000.8,650.5,1001.3,652.3,1001,654z"/>
	<path class="st1" d="M648.9,814.9c-0.3,0.4-0.6,0.7-1,1.1c-2.7,0.4-6.2,2.8-6.5-2.7c0-0.5,0.1-1,0.5-1.4c2.2,1.2,4.1,4.4,6.8,0.8
		C649.6,813.4,649.6,814.1,648.9,814.9z"/>
	<path class="st1" d="M517.9,534.1c0.4-0.1,0.8-0.2,1.2-0.3c1.8,1.6,3.5,3.3,4,5.9c-0.1,0.5-0.2,0.9-0.3,1.4
		C521,538.9,518.9,536.9,517.9,534.1z"/>
	<path class="st1" d="M565.9,729c0.4,2.1-0.3,4.4,2.3,5.9c1.6,0.9,0.9,3.2,0.8,5c-0.9-3.8-5.4-6.2-4.1-10.9
		C565.2,728.7,565.6,728.7,565.9,729z"/>
	<path class="st1" d="M648.9,814.9c0-0.7-0.1-1.4-0.1-2.1c1.2-3,1.3-6.6,4.1-8.9C652.5,807.9,651,811.4,648.9,814.9z"/>
	<path class="st1" d="M632.9,896c1.1,0.3,1.1,1.6,1.9,2.2c0.4,2.8,3,4.8,3.1,7.8C635.1,903.3,633.6,899.9,632.9,896z"/>
	<path class="st1" d="M893,743.1c0-0.4,0-0.8,0.1-1.2c2.7,1.6,4.5,3.9,5,7c-0.4,0-0.8,0-1.2,0.1C895.5,747.1,894.9,744.7,893,743.1z
		"/>
	<path class="st1" d="M512,582.9c2.1,2.3,0,6.1,3,8.1c0.2,0.7,1.4,1.2,0.7,2.2C510.8,591.1,511.9,586.8,512,582.9z"/>
	<path class="st1" d="M565.9,729c-0.3,0-0.7,0-1,0c-2.2-1.9-1.6-4.6-2-7c0.4,0,0.8-0.1,1.2-0.1c0.4,0.6,0.7,1.3,1.1,1.9
		c1,1.5,1.6,3.1,1,5L565.9,729z"/>
	<path class="st1" d="M498,818c-1.5-3.8-0.7-7.9-1.2-11.9C499.1,809.9,498.2,814,498,818z"/>
	<path class="st1" d="M642,811.9c0,0.4,0,0.8-0.1,1.2c-0.4,0.3-0.7,0.3-0.8-0.3c-1.8-2.2-4.3-3.9-5.1-6.8
		C638.8,807.1,639.9,810,642,811.9z"/>
	<path class="st1" d="M751,563c0.7,4.2-3.4,3.3-5.2,4.9C746.4,565,749.3,564.6,751,563z"/>
	<path class="st1" d="M717,748c1.2-3-0.2-5.9-0.2-8.9C718.2,742,721,744.9,717,748z"/>
	<path class="st1" d="M474.9,478.9c0.6,0,1.3,0,1.9-0.1c-1.4,2.2-4.6,3-4.8,6.1c-0.4,0-0.8,0-1.2-0.1
		C471.1,482.1,472.5,480.2,474.9,478.9z"/>
	<path class="st1" d="M551.9,693.2c-0.3-0.8-0.5-1.7-0.8-2.5c2.5,1.3,4,3.3,3.9,6.3c-0.4,0-0.8,0-1.1,0.1
		C553.2,695.7,552.6,694.5,551.9,693.2z"/>
	<path class="st1" d="M862,697.9c0.7,0.3,1.3,0.7,2,1c3.5,1.4,7,2.3,10.7,0.4c1.9-1,4.2-0.4,6.3-0.4c1.8-0.3,3.8-1.6,5,1
		c-3.6,0.4-7.4,0.1-10.7,1.3c-6.3,2.2-12.2-0.8-18.3-0.9c-1.9,0-3.9-0.3-5.9-0.4c-1.5,0-3.6-0.1-3.5,1.7c0.1,0.9-0.6,4.4,2.8,3.4
		c2,4,5.2,2.5,8.4,2.1c1.4-0.2,2.7,1.1,2.6,2.9c-0.1,1.3-0.3,2.6-0.4,3.9c-3.8-1.6-7.6-3.2-11.3-5c-1.7-0.9-3.2-2.1-4.2-4
		c-2.6-5.1-1.6-6.9,4.2-7c2.4,0,4.7,0,6.3-2.1l0,0C858.2,696.2,860,697.4,862,697.9z"/>
	<path class="st1" d="M632,787c0.1,1.4,0.2,2.9,0.3,4.8c-3.3-1.7-4.8-0.2-5.2,3c-0.3,2.1-0.7,4.1-1,6.2c-3.5-3.8-3.3-8.4,0.9-11.9
		c1.8-1.5,2-2.6,1.4-4.6c-2.1-6.4-4.5-12.3-11.3-15.5c-2.8-1.3-4.7-4.1-6-7.1c-1.6-1.8-3.5-3.5-4.9-5.5c-1.1-1.5-3.4-3.1-1.1-5.4
		c0.7,0.4,0.4,1.4,1,1.9c1.1,3.1,3.9,4.8,6.2,6.7c2.2,1.8,5.8,2.1,4.9,6.3c-0.1,0.7,1,1.4,1.8,1.5c6.2,0.7,7.1,6.3,9.5,10.3
		C630.1,780.6,630.8,783.9,632,787z"/>
	<path class="st1" d="M611,761.9c3.5,5.9,10.7,7.8,14.4,13.7c2.5,4,3.2,8.6,5.1,12.7c-6,2.8-7.2,6.3-4.5,12.6c0.9,2.3,2.9,3.2,5,4
		c0,0.3,0,0.6,0,1c-4.1-0.3-6.7-1.7-7.2-6.4c-0.3-2.7-2.8-4.9-0.3-8.1c1.3-1.6-1.8-2.6-2.9-4.1c1.8-3.3,4.3-2.6,7.7-0.4
		c-2.8-6.1-3.5-12.4-9-15.6c-2.9-1.7-5.1-4.2-7.8-6C609.8,764.1,610.5,763.1,611,761.9z"/>
	<path class="st1" d="M475.9,831.8c1.6-1.8,1.8-3.8-0.5-4.8c-4.5-1.9-6.7-4.2-4.1-9.2c0.5-1-0.1-2.5-0.2-3.8c1-4,2.3-7.9,1.8-12
		c0.4,0,0.8,0,1.2,0c1.7,6.2-1.4,12.2-0.6,18.3c0.2,1.3-0.3,2.6,0.7,3.7c3.4,2.8,5.8,5.5,2.7,10.4c-1,1.5-0.6,5.3,2.2,6.3
		c4.7,1.7,2.5,3.9,0.9,6.2c-0.6-1.6,2.3-5.3-2.7-4.3c-1.1,0.2-1.1-1-1-1.8c0-2.9-0.9-5.5-2.9-7.6
		C473.8,831.8,475.8,833.8,475.9,831.8z"/>
	<path class="st1" d="M994,540.9c1.5,0.9,3,2.3,4.7,2.8c5.7,1.6,8,5.9,9.4,11.1c1,3.7,2,7.3,3.1,11.5c-2.7-0.4-5.7-4.5-7.2,0.5
		c-1,1.2,0.5,3-0.9,4.1c-0.4,0.3-0.7,0.6-1.1,0.9c0.2-3.8-1.3-8.4,4.8-9.2c1.3-0.2,1.4-1.5,1.2-2.4c-1-3.4-1.6-6.7-4-9.8
		c-2.6-3.3-5.4-5.6-9-7.4C994.2,542.7,994.1,541.8,994,540.9z"/>
	<path class="st1" d="M785,711c-0.7-8.6-1.6-17.1-1.9-25.7c-0.2-6.3-0.2-12.6,0.6-18.9c0.5-3.8-0.9-7.9-0.6-11.9
		c0.1-1.6-0.6-3.4,1-4.6c-0.5,6.2,1.6,12.3,0.8,18.3c-0.8,5.8-1.2,11.7-0.5,17.4C785.3,694.1,784.9,702.5,785,711z"/>
	<path class="st1" d="M463,562.9c0.3,0,0.6,0,0.9-0.1c-0.6,3.5-2.2,7.2-1.8,10.6c1.4,10.8-1.6,21.6,0.4,32.5
		c0.5,2.5-0.2,5.9-3.1,7.7c1.5-4.7,1.5-9.4,1.1-14.3c-0.8-8.8,0.9-17.5,0.2-26.3C460.5,569.7,461.8,566.2,463,562.9z"/>
	<path class="st1" d="M497.2,654.1c0.3,4.4,3.3,8.7,0.1,13.1c3.9,4.3,2.1,9.8,2.7,14.7c0.2,1.9,0.6,4.1-2.1,4.9c0.5-3,3-6.3-1.4-8.5
		c-0.6-0.3-0.6-1.3-0.1-1.8c2.5-2.1,0.5-3.1-0.6-5.1c-1.4-2.6-0.3-6,1-8.8c0.8-1.7,1.6-2.8-0.4-4.1c-2.2-1.3-1.4-3-0.5-4.7
		C496.4,653.6,496.8,653.7,497.2,654.1z"/>
	<path class="st1" d="M1007,607.9c0.1,1.2,0.5,2.3,1.5,3c3.1,2.2,2.7,5.3,2.3,8.4c-2.4,0.5-2.3-1.3-3-2.5c-0.8-1.3-1.9-0.9-2.9-0.1
		c-0.7,0.7-0.8,1.6,0.1,2c4.1,1.7,1,3.5,0.1,5.2c-0.2-1.6,0-3-1.5-4.4c-2.9-2.7-0.3-6-1.3-9.6c3.2,1.2,3.3,4.7,6.3,4.1
		C1009,611.8,1004.2,610.8,1007,607.9z"/>
	<path class="st1" d="M720.8,718.8c-2.2,3.2-2.4,7.5-6.3,9.7c-0.9,0.5-0.5,2.2-0.4,3.3c0,0.7,0,1.4-0.1,2.1
		c-2.2-2.8-1.6-5.8,0.3-8.2c3.9-4.9,6.5-10.4,9.5-15.8c0.4,0,0.8,0.1,1.2,0.1c-0.3,2.5,2.9,4.2,1.7,7.1c-1.7,0.3-1.9-3-3.8-1.9
		C721.6,715.9,721.1,717.3,720.8,718.8z"/>
	<path class="st1" d="M497.2,654.1c-0.4-0.1-0.8-0.1-1.2-0.2c1.9-7,0.7-9.7-5.5-13.1c-2.4-1.3-2-4.9,0.7-6.8c-0.4,2.7-0.5,4.5,2.9,6
		c3.1,1.4,6.2,4.7,4,9.3C497.4,650.8,498.5,652.7,497.2,654.1z"/>
	<path class="st1" d="M810,464.9c0-0.3,0-0.5,0.1-0.8c8.2,0.5,15.2-3.8,22.7-5.8c2.7-0.7,4.6-0.7,5.3,2.5c0,0.4-0.1,0.7-0.1,1.1
		c-3-3-6.4-2.3-9.5-0.6C822.7,464.5,816.5,465.3,810,464.9z"/>
	<path class="st1" d="M758,557.9c-0.2-4,2.9-6.2,5-9c1.5-3,2.5-6.1,1.7-9.6c-0.3-1.4,0-2.6,1.3-3.5c1-0.3,2-0.7,3-1
		c-2.3,3.2-1.6,7.2-3,10.7C764.2,550.3,760.7,553.8,758,557.9z"/>
	<path class="st1" d="M594.1,708.8c3.7,6.9,7.4,13.9,8,22c0.4,0.8,0.5,1.6-0.1,2.3c-3.6-7-4.9-14.8-8-22
		C593.5,710.2,593.3,709.5,594.1,708.8z"/>
	<path class="st1" d="M1001,645c1.3,2.5-0.2,4.2-1.8,5.7c-0.1,0.5-0.2,0.9-0.3,1.4c-0.3-3.9-0.8-8.2,2-11.3c1.9-2.1,1.6-4,1.3-6.2
		c0.9,0.3,1.5,1,2.6,1.1c1,0.1,1.9,0.7,2,1.8c0.2,1.4-0.7,2-1.8,2.6C1003,641.1,1000.7,642,1001,645z"/>
	<path class="st1" d="M1007.1,626.9c0.1,1,0.4,1.7,1.5,2.3c1.6,0.8,2.1,2.2,0.7,3.6c-1.5,1.6-2.4,0.4-3.5-0.9c-2.8-3.2-3.6-3-4.8,1
		c-1.9-2.2-1.4-4.2,1.3-4.8c2.1-0.5,2.9-1.2,2.8-3.2C1005.8,625.6,1006.4,626.2,1007.1,626.9z"/>
	<path class="st1" d="M802,851c-1.6-4.4-1.4-9-1.9-13.5c-0.3-2.6-0.1-5.1-2.2-7.4c-1.9-2-0.7-4.8-0.9-7.2
		C800.9,831.9,803.2,841.1,802,851z"/>
	<path class="st1" d="M489.1,852.9c-0.1,0.7-0.1,1.4-0.2,2.1c-1.2-6.1-2.7-12.2,1.4-17.8c0.9-1.3,0.2-2.2-0.3-3.2
		c-0.8-1.7-1.2-3.2,1.1-4c-0.5,2.7,1,4.7,2.9,6.8C486.1,840.4,489.7,847.2,489.1,852.9z"/>
	<path class="st1" d="M566.2,728.8c-1.4-1.4-1.3-3.2-1-5c5.3,1.9,4.8,7,5.8,11.1c0.5,1.9,0.1,4,0.1,6c-1.7-1.4-0.9-3.3-1.1-5
		C569.8,733,569,730.3,566.2,728.8z"/>
	<path class="st1" d="M474,824c-1.6-0.7-1.6-1.8-1.4-3.5c0.7-6.1,1-12.3,1.4-18.5c0-2,0-4,0-5.9c2.3,4.2,1.4,8.9,0.8,13.1
		C474,814.1,474.2,819,474,824z"/>
	<path class="st1" d="M496.9,717.9c-1.5,1.5-0.7,3.3-0.9,5c-0.2,1.7,0.6,3.6-1,5c0-6.1,0-12.2,0-18.4c0-1.6-0.6-3.4,1-4.6
		c0.1,3.6-1,7.5,1.6,10.8C497.9,716.1,497.2,717.2,496.9,717.9z"/>
	<path class="st1" d="M892,458.9c6.2,0.2,12.7-0.4,17.9,4C904,461.6,898,460.2,892,458.9z"/>
	<path class="st1" d="M782.9,627.1c-1.3-6.5-1.6-12.9,1.1-19.1c-0.1,6.2-2,12.5,0,18.7c0.2,0.8-0.1,1.6-0.7,2.3
		C783.2,628.3,783,627.7,782.9,627.1z"/>
	<path class="st1" d="M813.1,858c-0.1,1.7-0.1,3.3-0.2,5c0,0.9-0.2,1.7-1.3,1.8c-1,0.1-1.6-0.6-1.8-1.4c-0.4-1.8-0.6-3.6-0.9-5.3
		C810.3,858.9,811.7,858.9,813.1,858z"/>
	<path class="st1" d="M769,472.9c-0.7,0-1.3,0-2-0.1c-1.7-0.2-3.8-0.8-3.2-2.8c0.7-2,2.6-0.4,3.8,0c2.1,0.7,4.2,1,6.3,0.9
		C772.9,472.9,770.1,470.9,769,472.9z"/>
	<path class="st1" d="M602,733c0-0.8,0.1-1.5,0.1-2.3c1.6,1.9,2.7,4,3.9,6.2c1.4,2.5,1.1,4.6,0.1,6.9C605.5,740,603.9,736.4,602,733
		z"/>
	<path class="st1" d="M868,720.9c-2-0.1-3.1-1.4-4-3c1.4-0.3,0.5-3.8,3.3-2.4C870.2,717,868.9,719,868,720.9z"/>
	<path class="st1" d="M495,747c0,5.1,0,10.2-0.1,15.4c0,1.6,0.6,3.3-1,4.6c0-5.1-0.1-10.3,0-15.4C494,750,493.4,748.2,495,747z"/>
	<path class="st1" d="M685,729.9c1.3-2.1,2.1-4.4,2.1-7c0-2.2,0.9-4.1,2.1-5.9c0.3,0,0.6,0,0.9,0c-0.7,3-1.4,6.1-2,9.1
		c-0.4,2-1,3.9-3,4.9C685,730.6,685,730.3,685,729.9z"/>
	<path class="st1" d="M781.1,554c-1.4,2.5-3.9,1.6-6.1,1.9c-0.4-0.1-0.7-0.1-1.1-0.2c2.1-1,0.5-5,4-4.8
		C777.8,553.3,779,554.1,781.1,554z"/>
	<path class="st1" d="M494.1,691.7c2.9,4.1,4.8,8.3,1.9,13.2C496.7,700.4,494.2,696.2,494.1,691.7z"/>
	<path class="st1" d="M594.1,708.8c0,0.7-0.1,1.5-0.1,2.2c-2.7-2.5-4.5-5.6-6-8.9c0.4-0.1,0.8-0.2,1.2-0.3
		C590.7,704.2,593.6,705.6,594.1,708.8z"/>
	<path class="st1" d="M731,627.9c0.2-1.6,1.3-2.9,0.7-4.7c-1-3.1,1.4-4.7,3.3-6.4C733.3,620.4,734.4,625,731,627.9z"/>
	<path class="st1" d="M495,731c1.8,5.3,1.4,10.6,0,16C494.2,741.6,495.3,736.3,495,731z"/>
	<path class="st1" d="M886,699.9c-1.4-1.7-3.4-0.6-5-1c2.1-1.4,4.6-1.4,6.4-0.1c2.5,1.9,5,1.7,7.7,1.1
		C892,703.7,889,700.9,886,699.9z"/>
	<path class="st1" d="M875,457.9c4.1,0,8.2-0.1,12.4,0c1.6,0,3.3-0.5,4.6,1c-4.1,0-8.3,0.1-12.4,0
		C878.1,458.9,876.3,459.5,875,457.9z"/>
	<path class="st1" d="M784.1,646c0-5.3,0.5-10.6-0.2-15.9C786,635.3,785.6,640.7,784.1,646z"/>
	<path class="st1" d="M784,602.9c-2-3.2-0.5-6.7-1-10c0.4-2-0.8-4.3,1-6C784,592.3,784,597.6,784,602.9z"/>
	<path class="st1" d="M946,774.9c1.2,1.2,2.4,2.4,3.6,3.7c-2.4,2.8-3.6-1.2-5.5-0.7C944,776.4,944.9,775.5,946,774.9z"/>
	<path class="st1" d="M813.1,834c0,3.7-0.1,7.3-0.1,11C812.1,841.3,809.1,837.6,813.1,834z"/>
	<path class="st1" d="M769,534.9c3.4-2.5,3.8-6.7,6-10C774.3,529,774.6,533.7,769,534.9z"/>
	<path class="st1" d="M640.5,826.5c1.4,2,2.2,3.7,0.6,5.6c-0.2,0.2-1.1,0.2-1.3,0C638.3,830.2,639.1,828.5,640.5,826.5z"/>
	<path class="st1" d="M973.1,502.9c4.8,1.1,4.8,5.9,7.1,9C976.3,510,976,505.4,973.1,502.9z"/>
	<path class="st1" d="M606.1,743.8c1.6,1.1,3.2,2.2,4.8,3.3c-0.7,2.7-2.4,3.4-4.9,2.7C609,748,605.7,745.8,606.1,743.8z"/>
	<path class="st1" d="M783,467.9c4.2-1.7,8.5-3.3,13.1-1.1C791.7,466.3,787.4,468,783,467.9z"/>
	<path class="st1" d="M862,455.9c4.4,0.2,9-0.9,13,2C870.8,456.8,866.2,457.7,862,455.9z"/>
	<path class="st1" d="M823,659.9c0.2,1.8-0.8,3.6,0.6,5.6c1,1.4,1.2,3.7-0.7,5.3c0-1.6,0.6-3.5-0.6-4.8
		C820.3,663.6,821.2,661.8,823,659.9z"/>
	<path class="st1" d="M977,588.9c0-4.6,0-9.3,0-13.9C978.7,579.6,978.7,584.2,977,588.9z"/>
	<path class="st1" d="M729.9,698.7c-1.3-0.4-1.9-1.2-1.8-2.5c0.1-0.9,0.6-1.8,1.4-1.6c1.3,0.3,2.3,1.3,2.1,2.8
		C731.6,698.1,730.8,698.7,729.9,698.7z"/>
	<path class="st1" d="M641.1,812.8c0.3,0.1,0.6,0.2,0.8,0.3c0.2,4.7,4.1,1.7,6,2.9c-0.3,0.4-0.6,0.7-1,1.1c-2,1.3-4,3.1-6,0l0,0
		C641,815.6,641.1,814.2,641.1,812.8z"/>
	<path class="st1" d="M641,817c2,1.8,4,0.2,6,0c-1,2.2-3.7,2.9-4.6,5.4C641.9,820.4,641.4,818.7,641,817z"/>
	<path class="st1" d="M720.9,650.9c0.5-3-0.8-6.5,2.1-8.9C723,645.1,723.4,648.3,720.9,650.9z"/>
	<path class="st1" d="M463,763.9c-1.8-3,0.6-4.9,1.9-7c0.4,2.7-1.3,5.4,0.1,8C464.4,764.6,463.7,764.3,463,763.9z"/>
	<path class="st1" d="M839,462.9c3.9,0.9,6.5-2.7,10-2.9C846.2,462.5,843.4,465.4,839,462.9z"/>
	<path class="st1" d="M605.9,749.9c2-0.3,3.9-0.8,4.9-2.7c0.2,2.3,0.3,2.5-1.1,3c-1.6,0.6-3.1,1-3.8,2.8c-0.9-0.4-0.8-1.2-1-1.9
		C605.4,750.6,605.7,750.3,605.9,749.9z"/>
	<path class="st1" d="M511.1,517.8c2.9,1.8,1.5,4.7,1.8,7.1C510.7,523,510.9,520.4,511.1,517.8z"/>
	<path class="st1" d="M499.9,501.9c1.3,1.5,2.9,2.8,3.1,5c-1.5-0.5-2.4-2.6-4.3-1.1C498.1,503.8,500.4,503.4,499.9,501.9z"/>
	<path class="st1" d="M572,660c2.1,2.2,3.2,4.8,3.1,7.9C572.8,665.8,572.4,662.9,572,660z"/>
	<path class="st1" d="M783.8,551.5c-0.4-0.5-0.7-0.8-0.7-1.1c-0.1-1.4-1.8-2.6-0.5-4c0.2-0.2,1-0.2,1.2,0.1
		C785.4,548,785.4,549.5,783.8,551.5z"/>
	<path class="st1" d="M787,533.9c0,0.3,0,0.7,0,1c0,1.3,0.3,2.9-1.4,3.3c-0.9,0.2-1.4-0.7-1.5-1.6C783.7,534.3,785,533.8,787,533.9
		L787,533.9z"/>
	<path class="st1" d="M1003.1,570.9c0.1-1.4-0.5-3,0.9-4.1c0.1,0.5,0.2,1,0.4,1.4c0.7,1.1,3.5,0.7,2.2,2.9
		C1005.8,572.6,1004.3,570.6,1003.1,570.9z"/>
	<path class="st1" d="M862,697.9c-2.5,0.9-4.9,1.5-6-2C859.2,693.2,860.9,694.8,862,697.9z"/>
</g>
</svg>
